<?xml version="1.0" standalone="no"?><svg xmlns:xlink="http://www.w3.org/1999/xlink" xmlns="http://www.w3.org/2000/svg" viewBox="0 0 1000 799.9983636378514" preserveAspectRatio="xMaxYMax slice"><g transform="scale(2.7272702479361386)"><rect x="0" y="0" width="403.33287499999994" height="329.999625" fill="#ffffff"/><g transform="translate(51.33,14.67) scale(0.3665) rotate(0)"><path d="M10 1L12.2451 7.90983H19.5106L13.6327 12.1803L15.8779 19.0902L10 14.8197L4.12215 19.0902L6.36729 12.1803L0.489441 7.90983H7.75487L10 1Z" fill="#183FE1"/></g><rect x="124.666525" y="14.666649999999999" width="7.3333249999999985" height="7.3333249999999985" fill="#ffffff"/><g transform="translate(124.67,14.67) scale(0.1835) rotate(0)"><path d="M10 1L12.2451 7.90983H19.5106L13.6327 12.1803L15.8779 19.0902L10 14.8197L4.12215 19.0902L6.36729 12.1803L0.489441 7.90983H7.75487L10 1Z" fill="#183FE1"/></g><g transform="translate(344.67,14.67) scale(0.3665) rotate(0)"><path d="M10 1L12.2451 7.90983H19.5106L13.6327 12.1803L15.8779 19.0902L10 14.8197L4.12215 19.0902L6.36729 12.1803L0.489441 7.90983H7.75487L10 1Z" fill="#FF3565"/></g><g transform="translate(14.67,51.33) scale(0.3665) rotate(0)"><path d="M10 1L12.2451 7.90983H19.5106L13.6327 12.1803L15.8779 19.0902L10 14.8197L4.12215 19.0902L6.36729 12.1803L0.489441 7.90983H7.75487L10 1Z" fill="#183FE1"/></g><g transform="translate(198,51.33) scale(0.3665) rotate(0)"><path d="M10 1L12.2451 7.90983H19.5106L13.6327 12.1803L15.8779 19.0902L10 14.8197L4.12215 19.0902L6.36729 12.1803L0.489441 7.90983H7.75487L10 1Z" fill="#FF3565"/></g><g transform="translate(234.67,51.33) scale(0.3665) rotate(0)"><path d="M10 1L12.2451 7.90983H19.5106L13.6327 12.1803L15.8779 19.0902L10 14.8197L4.12215 19.0902L6.36729 12.1803L0.489441 7.90983H7.75487L10 1Z" fill="#FF3565"/></g><g transform="translate(271.33,51.33) scale(0.3665) rotate(0)"><path d="M10 1L12.2451 7.90983H19.5106L13.6327 12.1803L15.8779 19.0902L10 14.8197L4.12215 19.0902L6.36729 12.1803L0.489441 7.90983H7.75487L10 1Z" fill="#FF3565"/></g><g transform="translate(344.67,51.33) scale(0.3665) rotate(0)"><path d="M10 1L12.2451 7.90983H19.5106L13.6327 12.1803L15.8779 19.0902L10 14.8197L4.12215 19.0902L6.36729 12.1803L0.489441 7.90983H7.75487L10 1Z" fill="#FF3565"/></g><rect x="124.666525" y="87.9999" width="7.3333249999999985" height="7.3333249999999985" fill="#ffffff"/><g transform="translate(124.67,88) scale(0.1835) rotate(0)"><path d="M10 1L12.2451 7.90983H19.5106L13.6327 12.1803L15.8779 19.0902L10 14.8197L4.12215 19.0902L6.36729 12.1803L0.489441 7.90983H7.75487L10 1Z" fill="#183FE1"/></g><g transform="translate(124.67,91.67) scale(0.1835) rotate(0)"><path d="M10 1L12.2451 7.90983H19.5106L13.6327 12.1803L15.8779 19.0902L10 14.8197L4.12215 19.0902L6.36729 12.1803L0.489441 7.90983H7.75487L10 1Z" fill="#183FE1"/></g><g transform="translate(128.33,91.67) scale(0.1835) rotate(0)"><path d="M10 1L12.2451 7.90983H19.5106L13.6327 12.1803L15.8779 19.0902L10 14.8197L4.12215 19.0902L6.36729 12.1803L0.489441 7.90983H7.75487L10 1Z" fill="#183FE1"/></g><rect x="161.33315" y="87.9999" width="7.3333249999999985" height="7.3333249999999985" fill="#ffffff"/><g transform="translate(161.33,91.67) scale(0.1835) rotate(0)"><path d="M10 1L12.2451 7.90983H19.5106L13.6327 12.1803L15.8779 19.0902L10 14.8197L4.12215 19.0902L6.36729 12.1803L0.489441 7.90983H7.75487L10 1Z" fill="#183FE1"/></g><g transform="translate(14.67,124.67) scale(0.3665) rotate(0)"><path d="M10 1L12.2451 7.90983H19.5106L13.6327 12.1803L15.8779 19.0902L10 14.8197L4.12215 19.0902L6.36729 12.1803L0.489441 7.90983H7.75487L10 1Z" fill="#183FE1"/></g><g transform="translate(161.33,124.67) scale(0.3665) rotate(0)"><path d="M10 1L12.2451 7.90983H19.5106L13.6327 12.1803L15.8779 19.0902L10 14.8197L4.12215 19.0902L6.36729 12.1803L0.489441 7.90983H7.75487L10 1Z" fill="#FF3565"/></g><rect x="271.33302499999996" y="124.666525" width="7.3333249999999985" height="7.3333249999999985" fill="#ffffff"/><g transform="translate(271.33,124.67) scale(0.1835) rotate(0)"><path d="M10 1L12.2451 7.90983H19.5106L13.6327 12.1803L15.8779 19.0902L10 14.8197L4.12215 19.0902L6.36729 12.1803L0.489441 7.90983H7.75487L10 1Z" fill="#FF3565"/></g><g transform="translate(198,161.33) scale(0.3665) rotate(0)"><path d="M10 1L12.2451 7.90983H19.5106L13.6327 12.1803L15.8779 19.0902L10 14.8197L4.12215 19.0902L6.36729 12.1803L0.489441 7.90983H7.75487L10 1Z" fill="#183FE1"/></g><rect x="14.666649999999999" y="197.999775" width="7.3333249999999985" height="7.3333249999999985" fill="#ffffff"/><g transform="translate(14.67,198) scale(0.1835) rotate(0)"><path d="M10 1L12.2451 7.90983H19.5106L13.6327 12.1803L15.8779 19.0902L10 14.8197L4.12215 19.0902L6.36729 12.1803L0.489441 7.90983H7.75487L10 1Z" fill="#FF3565"/></g><g transform="translate(18.33,201.67) scale(0.1835) rotate(0)"><path d="M10 1L12.2451 7.90983H19.5106L13.6327 12.1803L15.8779 19.0902L10 14.8197L4.12215 19.0902L6.36729 12.1803L0.489441 7.90983H7.75487L10 1Z" fill="#FF3565"/></g><g transform="translate(161.33,198) scale(0.3665) rotate(0)"><path d="M10 1L12.2451 7.90983H19.5106L13.6327 12.1803L15.8779 19.0902L10 14.8197L4.12215 19.0902L6.36729 12.1803L0.489441 7.90983H7.75487L10 1Z" fill="#183FE1"/></g><g transform="translate(234.67,198) scale(0.3665) rotate(0)"><path d="M10 1L12.2451 7.90983H19.5106L13.6327 12.1803L15.8779 19.0902L10 14.8197L4.12215 19.0902L6.36729 12.1803L0.489441 7.90983H7.75487L10 1Z" fill="#FF3565"/></g><rect x="14.666649999999999" y="234.66639999999998" width="7.3333249999999985" height="7.3333249999999985" fill="#ffffff"/><g transform="translate(14.67,238.33) scale(0.1835) rotate(0)"><path d="M10 1L12.2451 7.90983H19.5106L13.6327 12.1803L15.8779 19.0902L10 14.8197L4.12215 19.0902L6.36729 12.1803L0.489441 7.90983H7.75487L10 1Z" fill="#183FE1"/></g><rect x="234.66639999999998" y="234.66639999999998" width="7.3333249999999985" height="7.3333249999999985" fill="#ffffff"/><g transform="translate(238.33,234.67) scale(0.1835) rotate(0)"><path d="M10 1L12.2451 7.90983H19.5106L13.6327 12.1803L15.8779 19.0902L10 14.8197L4.12215 19.0902L6.36729 12.1803L0.489441 7.90983H7.75487L10 1Z" fill="#183FE1"/></g><g transform="translate(344.67,234.67) scale(0.3665) rotate(0)"><path d="M10 1L12.2451 7.90983H19.5106L13.6327 12.1803L15.8779 19.0902L10 14.8197L4.12215 19.0902L6.36729 12.1803L0.489441 7.90983H7.75487L10 1Z" fill="#183FE1"/></g><g transform="translate(14.67,271.33) scale(0.3665) rotate(0)"><path d="M10 1L12.2451 7.90983H19.5106L13.6327 12.1803L15.8779 19.0902L10 14.8197L4.12215 19.0902L6.36729 12.1803L0.489441 7.90983H7.75487L10 1Z" fill="#FF3565"/></g><g transform="translate(271.33,271.33) scale(0.3665) rotate(0)"><path d="M10 1L12.2451 7.90983H19.5106L13.6327 12.1803L15.8779 19.0902L10 14.8197L4.12215 19.0902L6.36729 12.1803L0.489441 7.90983H7.75487L10 1Z" fill="#FF3565"/></g><rect x="87.9999" y="307.99965" width="7.3333249999999985" height="7.3333249999999985" fill="#ffffff"/><g transform="translate(88,308) scale(0.1835) rotate(0)"><path d="M10 1L12.2451 7.90983H19.5106L13.6327 12.1803L15.8779 19.0902L10 14.8197L4.12215 19.0902L6.36729 12.1803L0.489441 7.90983H7.75487L10 1Z" fill="#183FE1"/></g><g transform="translate(91.67,311.67) scale(0.1835) rotate(0)"><path d="M10 1L12.2451 7.90983H19.5106L13.6327 12.1803L15.8779 19.0902L10 14.8197L4.12215 19.0902L6.36729 12.1803L0.489441 7.90983H7.75487L10 1Z" fill="#FF3565"/></g><rect x="124.666525" y="307.99965" width="7.3333249999999985" height="7.3333249999999985" fill="#ffffff"/><g transform="translate(124.67,308) scale(0.1835) rotate(0)"><path d="M10 1L12.2451 7.90983H19.5106L13.6327 12.1803L15.8779 19.0902L10 14.8197L4.12215 19.0902L6.36729 12.1803L0.489441 7.90983H7.75487L10 1Z" fill="#183FE1"/></g><g transform="translate(124.67,311.67) scale(0.1835) rotate(0)"><path d="M10 1L12.2451 7.90983H19.5106L13.6327 12.1803L15.8779 19.0902L10 14.8197L4.12215 19.0902L6.36729 12.1803L0.489441 7.90983H7.75487L10 1Z" fill="#183FE1"/></g><g transform="translate(161.33,308) scale(0.3665) rotate(0)"><path d="M10 1L12.2451 7.90983H19.5106L13.6327 12.1803L15.8779 19.0902L10 14.8197L4.12215 19.0902L6.36729 12.1803L0.489441 7.90983H7.75487L10 1Z" fill="#183FE1"/></g><rect x="307.99965" y="307.99965" width="7.3333249999999985" height="7.3333249999999985" fill="#ffffff"/><g transform="translate(308,308) scale(0.1835) rotate(0)"><path d="M10 1L12.2451 7.90983H19.5106L13.6327 12.1803L15.8779 19.0902L10 14.8197L4.12215 19.0902L6.36729 12.1803L0.489441 7.90983H7.75487L10 1Z" fill="#FF3565"/></g><g transform="translate(311.67,308) scale(0.1835) rotate(0)"><path d="M10 1L12.2451 7.90983H19.5106L13.6327 12.1803L15.8779 19.0902L10 14.8197L4.12215 19.0902L6.36729 12.1803L0.489441 7.90983H7.75487L10 1Z" fill="#183FE1"/></g><g transform="translate(311.67,311.67) scale(0.1835) rotate(0)"><path d="M10 1L12.2451 7.90983H19.5106L13.6327 12.1803L15.8779 19.0902L10 14.8197L4.12215 19.0902L6.36729 12.1803L0.489441 7.90983H7.75487L10 1Z" fill="#FF3565"/></g><g transform="translate(381.33,308) scale(0.3665) rotate(0)"><path d="M10 1L12.2451 7.90983H19.5106L13.6327 12.1803L15.8779 19.0902L10 14.8197L4.12215 19.0902L6.36729 12.1803L0.489441 7.90983H7.75487L10 1Z" fill="#183FE1"/></g></g></svg>