<?xml version="1.0" standalone="no"?><svg xmlns:xlink="http://www.w3.org/1999/xlink" xmlns="http://www.w3.org/2000/svg" viewBox="0 0 1000 799.9983410153541" preserveAspectRatio="xMaxYMax slice"><g transform="scale(2.7649744101618343)"><rect x="0" y="0" width="397.83287499999994" height="325.499625" fill="#ffffff"/><circle cx="18.085" cy="18.085" r="14.465" fill="#8096ef"/><g transform="translate(39.78,3.62) scale(1.4465) rotate(0)"><rect width="20" height="2" fill="#a1b1f3"/><rect y="4" width="20" height="2" fill="#a1b1f3"/><rect y="8" width="20" height="2" fill="#a1b1f3"/><rect y="12" width="20" height="2" fill="#a1b1f3"/><rect y="16" width="20" height="2" fill="#a1b1f3"/></g><rect x="75.9499125" y="3.6166625" width="28.933299999999996" height="28.933299999999996" fill="#ffffff"/><g transform="translate(75.95,3.62) scale(0.7235) rotate(0)"><path d="M10 1L12.2451 7.90983H19.5106L13.6327 12.1803L15.8779 19.0902L10 14.8197L4.12215 19.0902L6.36729 12.1803L0.489441 7.90983H7.75487L10 1Z" fill="#e4d367"/></g><g transform="translate(90.42,3.62) scale(0.7235) rotate(0)"><path d="M10 5L5 0L0 5L5 10L0 15L5 20L10 15L15 20L20 15L15 10L20 5L15 0L10 5Z" fill="#e8da7f"/></g><g transform="translate(75.95,18.08) scale(0.7235) rotate(0)"><path d="M10 1L12.2451 7.90983H19.5106L13.6327 12.1803L15.8779 19.0902L10 14.8197L4.12215 19.0902L6.36729 12.1803L0.489441 7.90983H7.75487L10 1Z" fill="#f7f8fe"/></g><g transform="translate(90.42,18.08) scale(0.7235) rotate(0)"><path d="M10 5L5 0L0 5L5 10L0 15L5 20L10 15L15 20L20 15L15 10L20 5L15 0L10 5Z" fill="#f8f4d8"/></g><g transform="translate(112.12,3.62) scale(1.4465) rotate(0)"><rect width="20" height="2" fill="#5c5b7b"/><rect y="4" width="20" height="2" fill="#5c5b7b"/><rect y="8" width="20" height="2" fill="#5c5b7b"/><rect y="12" width="20" height="2" fill="#5c5b7b"/><rect y="16" width="20" height="2" fill="#5c5b7b"/></g><g transform="translate(148.28,3.62) scale(1.4465) rotate(0)"><rect width="20" height="2" fill="#ede197"/><rect y="4" width="20" height="2" fill="#ede197"/><rect y="8" width="20" height="2" fill="#ede197"/><rect y="12" width="20" height="2" fill="#ede197"/><rect y="16" width="20" height="2" fill="#ede197"/></g><circle cx="198.915" cy="18.085" r="14.465" fill="#dde3fb"/><rect x="220.61641249999997" y="3.6166625" width="28.933299999999996" height="28.933299999999996" fill="#ffffff"/><g transform="translate(220.62,3.62) scale(0.7235) rotate(0)"><path d="M10 1L12.2451 7.90983H19.5106L13.6327 12.1803L15.8779 19.0902L10 14.8197L4.12215 19.0902L6.36729 12.1803L0.489441 7.90983H7.75487L10 1Z" fill="#4d4b6e"/></g><g transform="translate(235.08,3.62) scale(0.7235) rotate(0)"><path d="M10 5L5 0L0 5L5 10L0 15L5 20L10 15L15 20L20 15L15 10L20 5L15 0L10 5Z" fill="#e1cf57"/></g><g transform="translate(220.62,18.08) scale(0.7235) rotate(0)"><rect width="20" height="2" fill="#2348e2"/><rect y="4" width="20" height="2" fill="#2348e2"/><rect y="8" width="20" height="2" fill="#2348e2"/><rect y="12" width="20" height="2" fill="#2348e2"/><rect y="16" width="20" height="2" fill="#2348e2"/></g><g transform="translate(235.08,18.08) scale(0.7235) rotate(0)"><path d="M10 1L12.2451 7.90983H19.5106L13.6327 12.1803L15.8779 19.0902L10 14.8197L4.12215 19.0902L6.36729 12.1803L0.489441 7.90983H7.75487L10 1Z" fill="#1c42e1"/></g><circle cx="271.24499999999995" cy="18.085" r="14.465" fill="#ffe3ea"/><rect x="292.9496625" y="3.6166625" width="28.933299999999996" height="28.933299999999996" fill="#ffffff"/><g transform="translate(292.95,3.62) scale(0.7235) rotate(0)"><path d="M10 5L5 0L0 5L5 10L0 15L5 20L10 15L15 20L20 15L15 10L20 5L15 0L10 5Z" fill="#dfcc4c"/></g><circle cx="314.65500000000003" cy="10.855" r="7.235" fill="#d6bd19"/><g transform="translate(292.95,18.08) scale(0.7235) rotate(0)"><rect width="20" height="2" fill="#8b89a1"/><rect y="4" width="20" height="2" fill="#8b89a1"/><rect y="8" width="20" height="2" fill="#8b89a1"/><rect y="12" width="20" height="2" fill="#8b89a1"/><rect y="16" width="20" height="2" fill="#8b89a1"/></g><g transform="translate(307.42,18.08) scale(0.7235) rotate(0)"><path d="M10 1L12.2451 7.90983H19.5106L13.6327 12.1803L15.8779 19.0902L10 14.8197L4.12215 19.0902L6.36729 12.1803L0.489441 7.90983H7.75487L10 1Z" fill="#fbf8e8"/></g><g transform="translate(329.12,3.62) scale(1.4465) rotate(0)"><rect width="20" height="2" fill="#555475"/><rect y="4" width="20" height="2" fill="#555475"/><rect y="8" width="20" height="2" fill="#555475"/><rect y="12" width="20" height="2" fill="#555475"/><rect y="16" width="20" height="2" fill="#555475"/></g><rect x="365.2829125" y="3.6166625" width="28.933299999999996" height="28.933299999999996" fill="#ffffff"/><g transform="translate(365.28,3.62) scale(0.7235) rotate(0)"><rect width="20" height="2" fill="#ffe4eb"/><rect y="4" width="20" height="2" fill="#ffe4eb"/><rect y="8" width="20" height="2" fill="#ffe4eb"/><rect y="12" width="20" height="2" fill="#ffe4eb"/><rect y="16" width="20" height="2" fill="#ffe4eb"/></g><g transform="translate(379.75,3.62) scale(0.7235) rotate(0)"><rect width="20" height="2" fill="#ff6c8f"/><rect y="4" width="20" height="2" fill="#ff6c8f"/><rect y="8" width="20" height="2" fill="#ff6c8f"/><rect y="12" width="20" height="2" fill="#ff6c8f"/><rect y="16" width="20" height="2" fill="#ff6c8f"/></g><g transform="translate(365.28,18.08) scale(0.7235) rotate(0)"><path d="M10 1L12.2451 7.90983H19.5106L13.6327 12.1803L15.8779 19.0902L10 14.8197L4.12215 19.0902L6.36729 12.1803L0.489441 7.90983H7.75487L10 1Z" fill="#f5efc6"/></g><g transform="translate(379.75,18.08) scale(0.7235) rotate(0)"><path d="M10 1L12.2451 7.90983H19.5106L13.6327 12.1803L15.8779 19.0902L10 14.8197L4.12215 19.0902L6.36729 12.1803L0.489441 7.90983H7.75487L10 1Z" fill="#f4edc1"/></g><rect x="3.6166625" y="39.78328749999999" width="28.933299999999996" height="28.933299999999996" fill="#ffffff"/><g transform="translate(3.62,39.78) scale(0.7235) rotate(0)"><path d="M10 1L12.2451 7.90983H19.5106L13.6327 12.1803L15.8779 19.0902L10 14.8197L4.12215 19.0902L6.36729 12.1803L0.489441 7.90983H7.75487L10 1Z" fill="#7c7b95"/></g><g transform="translate(18.08,39.78) scale(0.7235) rotate(0)"><path d="M10 5L5 0L0 5L5 10L0 15L5 20L10 15L15 20L20 15L15 10L20 5L15 0L10 5Z" fill="#c5c4d0"/></g><circle cx="10.855" cy="61.485" r="7.235" fill="#aeadbd"/><g transform="translate(18.08,54.25) scale(0.7235) rotate(0)"><path d="M10 1L12.2451 7.90983H19.5106L13.6327 12.1803L15.8779 19.0902L10 14.8197L4.12215 19.0902L6.36729 12.1803L0.489441 7.90983H7.75487L10 1Z" fill="#fffafb"/></g><g transform="translate(39.78,39.78) scale(1.4465) rotate(0)"><rect width="20" height="2" fill="#e8da7e"/><rect y="4" width="20" height="2" fill="#e8da7e"/><rect y="8" width="20" height="2" fill="#e8da7e"/><rect y="12" width="20" height="2" fill="#e8da7e"/><rect y="16" width="20" height="2" fill="#e8da7e"/></g><g transform="translate(75.95,39.78) scale(1.4465) rotate(0)"><rect width="20" height="2" fill="#d8bf21"/><rect y="4" width="20" height="2" fill="#d8bf21"/><rect y="8" width="20" height="2" fill="#d8bf21"/><rect y="12" width="20" height="2" fill="#d8bf21"/><rect y="16" width="20" height="2" fill="#d8bf21"/></g><rect x="112.11653749999999" y="39.78328749999999" width="28.933299999999996" height="28.933299999999996" fill="#ffffff"/><g transform="translate(112.12,39.78) scale(0.7235) rotate(0)"><path d="M10 1L12.2451 7.90983H19.5106L13.6327 12.1803L15.8779 19.0902L10 14.8197L4.12215 19.0902L6.36729 12.1803L0.489441 7.90983H7.75487L10 1Z" fill="#ffeff3"/></g><circle cx="133.815" cy="47.015" r="7.235" fill="#ffd4de"/><circle cx="119.355" cy="61.485" r="7.235" fill="#f6f0cc"/><circle cx="133.815" cy="61.485" r="7.235" fill="#767590"/><circle cx="162.745" cy="54.245000000000005" r="14.465" fill="#fafbfe"/><g transform="translate(184.45,39.78) scale(1.4465) rotate(0)"><path d="M10 1L12.2451 7.90983H19.5106L13.6327 12.1803L15.8779 19.0902L10 14.8197L4.12215 19.0902L6.36729 12.1803L0.489441 7.90983H7.75487L10 1Z" fill="#ffffff"/></g><rect x="220.61641249999997" y="39.78328749999999" width="28.933299999999996" height="28.933299999999996" fill="#ffffff"/><g transform="translate(220.62,39.78) scale(0.7235) rotate(0)"><rect width="20" height="2" fill="#f6f1ce"/><rect y="4" width="20" height="2" fill="#f6f1ce"/><rect y="8" width="20" height="2" fill="#f6f1ce"/><rect y="12" width="20" height="2" fill="#f6f1ce"/><rect y="16" width="20" height="2" fill="#f6f1ce"/></g><circle cx="242.31500000000003" cy="47.015" r="7.235" fill="#1e44e2"/><g transform="translate(220.62,54.25) scale(0.7235) rotate(0)"><path d="M10 1L12.2451 7.90983H19.5106L13.6327 12.1803L15.8779 19.0902L10 14.8197L4.12215 19.0902L6.36729 12.1803L0.489441 7.90983H7.75487L10 1Z" fill="#89879f"/></g><circle cx="242.31500000000003" cy="61.485" r="7.235" fill="#ffb3c5"/><g transform="translate(256.78,39.78) scale(1.4465) rotate(0)"><path d="M10 5L5 0L0 5L5 10L0 15L5 20L10 15L15 20L20 15L15 10L20 5L15 0L10 5Z" fill="#e1e1e7"/></g><g transform="translate(292.95,39.78) scale(1.4465) rotate(0)"><path d="M10 5L5 0L0 5L5 10L0 15L5 20L10 15L15 20L20 15L15 10L20 5L15 0L10 5Z" fill="#ff6388"/></g><g transform="translate(329.12,39.78) scale(1.4465) rotate(0)"><path d="M10 1L12.2451 7.90983H19.5106L13.6327 12.1803L15.8779 19.0902L10 14.8197L4.12215 19.0902L6.36729 12.1803L0.489441 7.90983H7.75487L10 1Z" fill="#ddc840"/></g><circle cx="379.74499999999995" cy="54.245000000000005" r="14.465" fill="#e1e1e7"/><rect x="3.6166625" y="75.9499125" width="28.933299999999996" height="28.933299999999996" fill="#ffffff"/><g transform="translate(3.62,75.95) scale(0.7235) rotate(0)"><path d="M10 1L12.2451 7.90983H19.5106L13.6327 12.1803L15.8779 19.0902L10 14.8197L4.12215 19.0902L6.36729 12.1803L0.489441 7.90983H7.75487L10 1Z" fill="#c5c5d0"/></g><g transform="translate(18.08,75.95) scale(0.7235) rotate(0)"><path d="M10 5L5 0L0 5L5 10L0 15L5 20L10 15L15 20L20 15L15 10L20 5L15 0L10 5Z" fill="#dfcb4a"/></g><g transform="translate(3.62,90.42) scale(0.7235) rotate(0)"><rect width="20" height="2" fill="#adbbf4"/><rect y="4" width="20" height="2" fill="#adbbf4"/><rect y="8" width="20" height="2" fill="#adbbf4"/><rect y="12" width="20" height="2" fill="#adbbf4"/><rect y="16" width="20" height="2" fill="#adbbf4"/></g><circle cx="25.314999999999998" cy="97.655" r="7.235" fill="#9291a7"/><circle cx="54.245000000000005" cy="90.415" r="14.465" fill="#ff9ab2"/><g transform="translate(75.95,75.95) scale(1.4465) rotate(0)"><path d="M10 1L12.2451 7.90983H19.5106L13.6327 12.1803L15.8779 19.0902L10 14.8197L4.12215 19.0902L6.36729 12.1803L0.489441 7.90983H7.75487L10 1Z" fill="#eadd88"/></g><rect x="112.11653749999999" y="75.9499125" width="28.933299999999996" height="28.933299999999996" fill="#ffffff"/><g transform="translate(112.12,75.95) scale(0.7235) rotate(0)"><path d="M10 1L12.2451 7.90983H19.5106L13.6327 12.1803L15.8779 19.0902L10 14.8197L4.12215 19.0902L6.36729 12.1803L0.489441 7.90983H7.75487L10 1Z" fill="#ff698d"/></g><g transform="translate(126.58,75.95) scale(0.7235) rotate(0)"><path d="M10 5L5 0L0 5L5 10L0 15L5 20L10 15L15 20L20 15L15 10L20 5L15 0L10 5Z" fill="#607bea"/></g><g transform="translate(112.12,90.42) scale(0.7235) rotate(0)"><path d="M10 5L5 0L0 5L5 10L0 15L5 20L10 15L15 20L20 15L15 10L20 5L15 0L10 5Z" fill="#a8a7b8"/></g><g transform="translate(126.58,90.42) scale(0.7235) rotate(0)"><path d="M10 5L5 0L0 5L5 10L0 15L5 20L10 15L15 20L20 15L15 10L20 5L15 0L10 5Z" fill="#c9c8d3"/></g><rect x="148.28316249999997" y="75.9499125" width="28.933299999999996" height="28.933299999999996" fill="#ffffff"/><g transform="translate(148.28,75.95) scale(0.7235) rotate(0)"><rect width="20" height="2" fill="#9897ac"/><rect y="4" width="20" height="2" fill="#9897ac"/><rect y="8" width="20" height="2" fill="#9897ac"/><rect y="12" width="20" height="2" fill="#9897ac"/><rect y="16" width="20" height="2" fill="#9897ac"/></g><g transform="translate(162.75,75.95) scale(0.7235) rotate(0)"><path d="M10 1L12.2451 7.90983H19.5106L13.6327 12.1803L15.8779 19.0902L10 14.8197L4.12215 19.0902L6.36729 12.1803L0.489441 7.90983H7.75487L10 1Z" fill="#ff7b9b"/></g><g transform="translate(148.28,90.42) scale(0.7235) rotate(0)"><rect width="20" height="2" fill="#dcdbe2"/><rect y="4" width="20" height="2" fill="#dcdbe2"/><rect y="8" width="20" height="2" fill="#dcdbe2"/><rect y="12" width="20" height="2" fill="#dcdbe2"/><rect y="16" width="20" height="2" fill="#dcdbe2"/></g><g transform="translate(162.75,90.42) scale(0.7235) rotate(0)"><rect width="20" height="2" fill="#e0cd51"/><rect y="4" width="20" height="2" fill="#e0cd51"/><rect y="8" width="20" height="2" fill="#e0cd51"/><rect y="12" width="20" height="2" fill="#e0cd51"/><rect y="16" width="20" height="2" fill="#e0cd51"/></g><g transform="translate(184.45,75.95) scale(1.4465) rotate(0)"><rect width="20" height="2" fill="#dde3fb"/><rect y="4" width="20" height="2" fill="#dde3fb"/><rect y="8" width="20" height="2" fill="#dde3fb"/><rect y="12" width="20" height="2" fill="#dde3fb"/><rect y="16" width="20" height="2" fill="#dde3fb"/></g><rect x="220.61641249999997" y="75.9499125" width="28.933299999999996" height="28.933299999999996" fill="#ffffff"/><g transform="translate(220.62,75.95) scale(0.7235) rotate(0)"><path d="M10 5L5 0L0 5L5 10L0 15L5 20L10 15L15 20L20 15L15 10L20 5L15 0L10 5Z" fill="#ff547d"/></g><g transform="translate(235.08,75.95) scale(0.7235) rotate(0)"><path d="M10 1L12.2451 7.90983H19.5106L13.6327 12.1803L15.8779 19.0902L10 14.8197L4.12215 19.0902L6.36729 12.1803L0.489441 7.90983H7.75487L10 1Z" fill="#7b91ee"/></g><circle cx="227.85500000000002" cy="97.655" r="7.235" fill="#9babf2"/><g transform="translate(235.08,90.42) scale(0.7235) rotate(0)"><rect width="20" height="2" fill="#d6d5de"/><rect y="4" width="20" height="2" fill="#d6d5de"/><rect y="8" width="20" height="2" fill="#d6d5de"/><rect y="12" width="20" height="2" fill="#d6d5de"/><rect y="16" width="20" height="2" fill="#d6d5de"/></g><rect x="256.7830375" y="75.9499125" width="28.933299999999996" height="28.933299999999996" fill="#ffffff"/><g transform="translate(256.78,75.95) scale(0.7235) rotate(0)"><path d="M10 1L12.2451 7.90983H19.5106L13.6327 12.1803L15.8779 19.0902L10 14.8197L4.12215 19.0902L6.36729 12.1803L0.489441 7.90983H7.75487L10 1Z" fill="#74738e"/></g><g transform="translate(271.25,75.95) scale(0.7235) rotate(0)"><rect width="20" height="2" fill="#e7d876"/><rect y="4" width="20" height="2" fill="#e7d876"/><rect y="8" width="20" height="2" fill="#e7d876"/><rect y="12" width="20" height="2" fill="#e7d876"/><rect y="16" width="20" height="2" fill="#e7d876"/></g><g transform="translate(256.78,90.42) scale(0.7235) rotate(0)"><path d="M10 1L12.2451 7.90983H19.5106L13.6327 12.1803L15.8779 19.0902L10 14.8197L4.12215 19.0902L6.36729 12.1803L0.489441 7.90983H7.75487L10 1Z" fill="#7c7a94"/></g><circle cx="278.485" cy="97.655" r="7.235" fill="#ececf0"/><rect x="292.9496625" y="75.9499125" width="28.933299999999996" height="28.933299999999996" fill="#ffffff"/><circle cx="300.185" cy="83.185" r="7.235" fill="#eee39f"/><g transform="translate(307.42,75.95) scale(0.7235) rotate(0)"><path d="M10 1L12.2451 7.90983H19.5106L13.6327 12.1803L15.8779 19.0902L10 14.8197L4.12215 19.0902L6.36729 12.1803L0.489441 7.90983H7.75487L10 1Z" fill="#e9db84"/></g><g transform="translate(292.95,90.42) scale(0.7235) rotate(0)"><path d="M10 5L5 0L0 5L5 10L0 15L5 20L10 15L15 20L20 15L15 10L20 5L15 0L10 5Z" fill="#f0f3fd"/></g><g transform="translate(307.42,90.42) scale(0.7235) rotate(0)"><path d="M10 5L5 0L0 5L5 10L0 15L5 20L10 15L15 20L20 15L15 10L20 5L15 0L10 5Z" fill="#f3f2f5"/></g><g transform="translate(329.12,75.95) scale(1.4465) rotate(0)"><path d="M10 1L12.2451 7.90983H19.5106L13.6327 12.1803L15.8779 19.0902L10 14.8197L4.12215 19.0902L6.36729 12.1803L0.489441 7.90983H7.75487L10 1Z" fill="#5f7aea"/></g><g transform="translate(365.28,75.95) scale(1.4465) rotate(0)"><path d="M10 1L12.2451 7.90983H19.5106L13.6327 12.1803L15.8779 19.0902L10 14.8197L4.12215 19.0902L6.36729 12.1803L0.489441 7.90983H7.75487L10 1Z" fill="#ff83a0"/></g><g transform="translate(3.62,112.12) scale(1.4465) rotate(0)"><path d="M10 1L12.2451 7.90983H19.5106L13.6327 12.1803L15.8779 19.0902L10 14.8197L4.12215 19.0902L6.36729 12.1803L0.489441 7.90983H7.75487L10 1Z" fill="#e4d365"/></g><circle cx="54.245000000000005" cy="126.58500000000001" r="14.465" fill="#2147e2"/><g transform="translate(75.95,112.12) scale(1.4465) rotate(0)"><path d="M10 5L5 0L0 5L5 10L0 15L5 20L10 15L15 20L20 15L15 10L20 5L15 0L10 5Z" fill="#ff668b"/></g><g transform="translate(112.12,112.12) scale(1.4465) rotate(0)"><path d="M10 5L5 0L0 5L5 10L0 15L5 20L10 15L15 20L20 15L15 10L20 5L15 0L10 5Z" fill="#f2f4fd"/></g><g transform="translate(148.28,112.12) scale(1.4465) rotate(0)"><path d="M10 5L5 0L0 5L5 10L0 15L5 20L10 15L15 20L20 15L15 10L20 5L15 0L10 5Z" fill="#a9b8f4"/></g><circle cx="198.915" cy="126.58500000000001" r="14.465" fill="#ff6c8f"/><g transform="translate(220.62,112.12) scale(1.4465) rotate(0)"><path d="M10 1L12.2451 7.90983H19.5106L13.6327 12.1803L15.8779 19.0902L10 14.8197L4.12215 19.0902L6.36729 12.1803L0.489441 7.90983H7.75487L10 1Z" fill="#e7d878"/></g><g transform="translate(256.78,112.12) scale(1.4465) rotate(0)"><path d="M10 1L12.2451 7.90983H19.5106L13.6327 12.1803L15.8779 19.0902L10 14.8197L4.12215 19.0902L6.36729 12.1803L0.489441 7.90983H7.75487L10 1Z" fill="#aab8f4"/></g><circle cx="307.41499999999996" cy="126.58500000000001" r="14.465" fill="#e3d161"/><g transform="translate(329.12,112.12) scale(1.4465) rotate(0)"><rect width="20" height="2" fill="#7d7c96"/><rect y="4" width="20" height="2" fill="#7d7c96"/><rect y="8" width="20" height="2" fill="#7d7c96"/><rect y="12" width="20" height="2" fill="#7d7c96"/><rect y="16" width="20" height="2" fill="#7d7c96"/></g><circle cx="379.74499999999995" cy="126.58500000000001" r="14.465" fill="#4d4b6e"/><g transform="translate(3.62,148.28) scale(1.4465) rotate(0)"><rect width="20" height="2" fill="#deca45"/><rect y="4" width="20" height="2" fill="#deca45"/><rect y="8" width="20" height="2" fill="#deca45"/><rect y="12" width="20" height="2" fill="#deca45"/><rect y="16" width="20" height="2" fill="#deca45"/></g><g transform="translate(39.78,148.28) scale(1.4465) rotate(0)"><rect width="20" height="2" fill="#3456e5"/><rect y="4" width="20" height="2" fill="#3456e5"/><rect y="8" width="20" height="2" fill="#3456e5"/><rect y="12" width="20" height="2" fill="#3456e5"/><rect y="16" width="20" height="2" fill="#3456e5"/></g><rect x="75.9499125" y="148.28316249999997" width="28.933299999999996" height="28.933299999999996" fill="#ffffff"/><g transform="translate(75.95,148.28) scale(0.7235) rotate(0)"><path d="M10 5L5 0L0 5L5 10L0 15L5 20L10 15L15 20L20 15L15 10L20 5L15 0L10 5Z" fill="#d6bc16"/></g><g transform="translate(90.42,148.28) scale(0.7235) rotate(0)"><rect width="20" height="2" fill="#ffe5eb"/><rect y="4" width="20" height="2" fill="#ffe5eb"/><rect y="8" width="20" height="2" fill="#ffe5eb"/><rect y="12" width="20" height="2" fill="#ffe5eb"/><rect y="16" width="20" height="2" fill="#ffe5eb"/></g><g transform="translate(75.95,162.75) scale(0.7235) rotate(0)"><rect width="20" height="2" fill="#4e4c6f"/><rect y="4" width="20" height="2" fill="#4e4c6f"/><rect y="8" width="20" height="2" fill="#4e4c6f"/><rect y="12" width="20" height="2" fill="#4e4c6f"/><rect y="16" width="20" height="2" fill="#4e4c6f"/></g><g transform="translate(90.42,162.75) scale(0.7235) rotate(0)"><path d="M10 1L12.2451 7.90983H19.5106L13.6327 12.1803L15.8779 19.0902L10 14.8197L4.12215 19.0902L6.36729 12.1803L0.489441 7.90983H7.75487L10 1Z" fill="#f2eab7"/></g><g transform="translate(112.12,148.28) scale(1.4465) rotate(0)"><path d="M10 1L12.2451 7.90983H19.5106L13.6327 12.1803L15.8779 19.0902L10 14.8197L4.12215 19.0902L6.36729 12.1803L0.489441 7.90983H7.75487L10 1Z" fill="#dcc639"/></g><rect x="148.28316249999997" y="148.28316249999997" width="28.933299999999996" height="28.933299999999996" fill="#ffffff"/><g transform="translate(148.28,148.28) scale(0.7235) rotate(0)"><path d="M10 5L5 0L0 5L5 10L0 15L5 20L10 15L15 20L20 15L15 10L20 5L15 0L10 5Z" fill="#ffdde5"/></g><circle cx="169.985" cy="155.51500000000001" r="7.235" fill="#738bed"/><g transform="translate(148.28,162.75) scale(0.7235) rotate(0)"><path d="M10 1L12.2451 7.90983H19.5106L13.6327 12.1803L15.8779 19.0902L10 14.8197L4.12215 19.0902L6.36729 12.1803L0.489441 7.90983H7.75487L10 1Z" fill="#eee39e"/></g><g transform="translate(162.75,162.75) scale(0.7235) rotate(0)"><path d="M10 5L5 0L0 5L5 10L0 15L5 20L10 15L15 20L20 15L15 10L20 5L15 0L10 5Z" fill="#d6bc17"/></g><circle cx="198.915" cy="162.745" r="14.465" fill="#fefefb"/><g transform="translate(220.62,148.28) scale(1.4465) rotate(0)"><path d="M10 5L5 0L0 5L5 10L0 15L5 20L10 15L15 20L20 15L15 10L20 5L15 0L10 5Z" fill="#1a40e1"/></g><circle cx="271.24499999999995" cy="162.745" r="14.465" fill="#cdcdd7"/><rect x="292.9496625" y="148.28316249999997" width="28.933299999999996" height="28.933299999999996" fill="#ffffff"/><g transform="translate(292.95,148.28) scale(0.7235) rotate(0)"><rect width="20" height="2" fill="#d6d6de"/><rect y="4" width="20" height="2" fill="#d6d6de"/><rect y="8" width="20" height="2" fill="#d6d6de"/><rect y="12" width="20" height="2" fill="#d6d6de"/><rect y="16" width="20" height="2" fill="#d6d6de"/></g><g transform="translate(307.42,148.28) scale(0.7235) rotate(0)"><rect width="20" height="2" fill="#dbdae2"/><rect y="4" width="20" height="2" fill="#dbdae2"/><rect y="8" width="20" height="2" fill="#dbdae2"/><rect y="12" width="20" height="2" fill="#dbdae2"/><rect y="16" width="20" height="2" fill="#dbdae2"/></g><g transform="translate(292.95,162.75) scale(0.7235) rotate(0)"><path d="M10 5L5 0L0 5L5 10L0 15L5 20L10 15L15 20L20 15L15 10L20 5L15 0L10 5Z" fill="#d8c024"/></g><g transform="translate(307.42,162.75) scale(0.7235) rotate(0)"><rect width="20" height="2" fill="#bbbac8"/><rect y="4" width="20" height="2" fill="#bbbac8"/><rect y="8" width="20" height="2" fill="#bbbac8"/><rect y="12" width="20" height="2" fill="#bbbac8"/><rect y="16" width="20" height="2" fill="#bbbac8"/></g><rect x="329.1162875" y="148.28316249999997" width="28.933299999999996" height="28.933299999999996" fill="#ffffff"/><circle cx="336.355" cy="155.51500000000001" r="7.235" fill="#f1e7ad"/><circle cx="350.815" cy="155.51500000000001" r="7.235" fill="#ff8ca7"/><g transform="translate(329.12,162.75) scale(0.7235) rotate(0)"><path d="M10 1L12.2451 7.90983H19.5106L13.6327 12.1803L15.8779 19.0902L10 14.8197L4.12215 19.0902L6.36729 12.1803L0.489441 7.90983H7.75487L10 1Z" fill="#ffadc0"/></g><circle cx="350.815" cy="169.985" r="7.235" fill="#fcfcfd"/><g transform="translate(365.28,148.28) scale(1.4465) rotate(0)"><path d="M10 1L12.2451 7.90983H19.5106L13.6327 12.1803L15.8779 19.0902L10 14.8197L4.12215 19.0902L6.36729 12.1803L0.489441 7.90983H7.75487L10 1Z" fill="#ff87a3"/></g><g transform="translate(3.62,184.45) scale(1.4465) rotate(0)"><path d="M10 1L12.2451 7.90983H19.5106L13.6327 12.1803L15.8779 19.0902L10 14.8197L4.12215 19.0902L6.36729 12.1803L0.489441 7.90983H7.75487L10 1Z" fill="#d7d7df"/></g><g transform="translate(39.78,184.45) scale(1.4465) rotate(0)"><path d="M10 1L12.2451 7.90983H19.5106L13.6327 12.1803L15.8779 19.0902L10 14.8197L4.12215 19.0902L6.36729 12.1803L0.489441 7.90983H7.75487L10 1Z" fill="#5874e9"/></g><g transform="translate(75.95,184.45) scale(1.4465) rotate(0)"><rect width="20" height="2" fill="#7f7e97"/><rect y="4" width="20" height="2" fill="#7f7e97"/><rect y="8" width="20" height="2" fill="#7f7e97"/><rect y="12" width="20" height="2" fill="#7f7e97"/><rect y="16" width="20" height="2" fill="#7f7e97"/></g><rect x="112.11653749999999" y="184.44978749999999" width="28.933299999999996" height="28.933299999999996" fill="#ffffff"/><g transform="translate(112.12,184.45) scale(0.7235) rotate(0)"><path d="M10 5L5 0L0 5L5 10L0 15L5 20L10 15L15 20L20 15L15 10L20 5L15 0L10 5Z" fill="#ff4f79"/></g><g transform="translate(126.58,184.45) scale(0.7235) rotate(0)"><path d="M10 1L12.2451 7.90983H19.5106L13.6327 12.1803L15.8779 19.0902L10 14.8197L4.12215 19.0902L6.36729 12.1803L0.489441 7.90983H7.75487L10 1Z" fill="#ffb8c9"/></g><circle cx="119.355" cy="206.155" r="7.235" fill="#ff678b"/><circle cx="133.815" cy="206.155" r="7.235" fill="#778eed"/><g transform="translate(148.28,184.45) scale(1.4465) rotate(0)"><path d="M10 5L5 0L0 5L5 10L0 15L5 20L10 15L15 20L20 15L15 10L20 5L15 0L10 5Z" fill="#ffa8bd"/></g><circle cx="198.915" cy="198.915" r="14.465" fill="#9c9baf"/><rect x="220.61641249999997" y="184.44978749999999" width="28.933299999999996" height="28.933299999999996" fill="#ffffff"/><g transform="translate(220.62,184.45) scale(0.7235) rotate(0)"><rect width="20" height="2" fill="#f8f9fe"/><rect y="4" width="20" height="2" fill="#f8f9fe"/><rect y="8" width="20" height="2" fill="#f8f9fe"/><rect y="12" width="20" height="2" fill="#f8f9fe"/><rect y="16" width="20" height="2" fill="#f8f9fe"/></g><g transform="translate(235.08,184.45) scale(0.7235) rotate(0)"><path d="M10 1L12.2451 7.90983H19.5106L13.6327 12.1803L15.8779 19.0902L10 14.8197L4.12215 19.0902L6.36729 12.1803L0.489441 7.90983H7.75487L10 1Z" fill="#afaebe"/></g><circle cx="227.85500000000002" cy="206.155" r="7.235" fill="#fffafb"/><circle cx="242.31500000000003" cy="206.155" r="7.235" fill="#ededf1"/><g transform="translate(256.78,184.45) scale(1.4465) rotate(0)"><path d="M10 1L12.2451 7.90983H19.5106L13.6327 12.1803L15.8779 19.0902L10 14.8197L4.12215 19.0902L6.36729 12.1803L0.489441 7.90983H7.75487L10 1Z" fill="#778eed"/></g><g transform="translate(292.95,184.45) scale(1.4465) rotate(0)"><path d="M10 5L5 0L0 5L5 10L0 15L5 20L10 15L15 20L20 15L15 10L20 5L15 0L10 5Z" fill="#8297ef"/></g><g transform="translate(329.12,184.45) scale(1.4465) rotate(0)"><path d="M10 5L5 0L0 5L5 10L0 15L5 20L10 15L15 20L20 15L15 10L20 5L15 0L10 5Z" fill="#ff9bb3"/></g><circle cx="379.74499999999995" cy="198.915" r="14.465" fill="#ff6086"/><circle cx="18.085" cy="235.085" r="14.465" fill="#ffb7c8"/><rect x="39.78328749999999" y="220.61641249999997" width="28.933299999999996" height="28.933299999999996" fill="#ffffff"/><g transform="translate(39.78,220.62) scale(0.7235) rotate(0)"><rect width="20" height="2" fill="#f8f4d9"/><rect y="4" width="20" height="2" fill="#f8f4d9"/><rect y="8" width="20" height="2" fill="#f8f4d9"/><rect y="12" width="20" height="2" fill="#f8f4d9"/><rect y="16" width="20" height="2" fill="#f8f4d9"/></g><g transform="translate(54.25,220.62) scale(0.7235) rotate(0)"><rect width="20" height="2" fill="#4c4a6d"/><rect y="4" width="20" height="2" fill="#4c4a6d"/><rect y="8" width="20" height="2" fill="#4c4a6d"/><rect y="12" width="20" height="2" fill="#4c4a6d"/><rect y="16" width="20" height="2" fill="#4c4a6d"/></g><g transform="translate(39.78,235.08) scale(0.7235) rotate(0)"><path d="M10 5L5 0L0 5L5 10L0 15L5 20L10 15L15 20L20 15L15 10L20 5L15 0L10 5Z" fill="#646281"/></g><g transform="translate(54.25,235.08) scale(0.7235) rotate(0)"><rect width="20" height="2" fill="#e9edfc"/><rect y="4" width="20" height="2" fill="#e9edfc"/><rect y="8" width="20" height="2" fill="#e9edfc"/><rect y="12" width="20" height="2" fill="#e9edfc"/><rect y="16" width="20" height="2" fill="#e9edfc"/></g><g transform="translate(75.95,220.62) scale(1.4465) rotate(0)"><path d="M10 1L12.2451 7.90983H19.5106L13.6327 12.1803L15.8779 19.0902L10 14.8197L4.12215 19.0902L6.36729 12.1803L0.489441 7.90983H7.75487L10 1Z" fill="#535274"/></g><rect x="112.11653749999999" y="220.61641249999997" width="28.933299999999996" height="28.933299999999996" fill="#ffffff"/><circle cx="119.355" cy="227.85500000000002" r="7.235" fill="#ff7f9d"/><g transform="translate(126.58,220.62) scale(0.7235) rotate(0)"><rect width="20" height="2" fill="#ffcdd9"/><rect y="4" width="20" height="2" fill="#ffcdd9"/><rect y="8" width="20" height="2" fill="#ffcdd9"/><rect y="12" width="20" height="2" fill="#ffcdd9"/><rect y="16" width="20" height="2" fill="#ffcdd9"/></g><g transform="translate(112.12,235.08) scale(0.7235) rotate(0)"><rect width="20" height="2" fill="#4262e7"/><rect y="4" width="20" height="2" fill="#4262e7"/><rect y="8" width="20" height="2" fill="#4262e7"/><rect y="12" width="20" height="2" fill="#4262e7"/><rect y="16" width="20" height="2" fill="#4262e7"/></g><g transform="translate(126.58,235.08) scale(0.7235) rotate(0)"><path d="M10 5L5 0L0 5L5 10L0 15L5 20L10 15L15 20L20 15L15 10L20 5L15 0L10 5Z" fill="#ffe4ea"/></g><rect x="148.28316249999997" y="220.61641249999997" width="28.933299999999996" height="28.933299999999996" fill="#ffffff"/><g transform="translate(148.28,220.62) scale(0.7235) rotate(0)"><rect width="20" height="2" fill="#ffffff"/><rect y="4" width="20" height="2" fill="#ffffff"/><rect y="8" width="20" height="2" fill="#ffffff"/><rect y="12" width="20" height="2" fill="#ffffff"/><rect y="16" width="20" height="2" fill="#ffffff"/></g><g transform="translate(162.75,220.62) scale(0.7235) rotate(0)"><rect width="20" height="2" fill="#ff688c"/><rect y="4" width="20" height="2" fill="#ff688c"/><rect y="8" width="20" height="2" fill="#ff688c"/><rect y="12" width="20" height="2" fill="#ff688c"/><rect y="16" width="20" height="2" fill="#ff688c"/></g><g transform="translate(148.28,235.08) scale(0.7235) rotate(0)"><path d="M10 5L5 0L0 5L5 10L0 15L5 20L10 15L15 20L20 15L15 10L20 5L15 0L10 5Z" fill="#cdd5f8"/></g><circle cx="169.985" cy="242.31500000000003" r="7.235" fill="#abaabb"/><g transform="translate(184.45,220.62) scale(1.4465) rotate(0)"><rect width="20" height="2" fill="#6b6a87"/><rect y="4" width="20" height="2" fill="#6b6a87"/><rect y="8" width="20" height="2" fill="#6b6a87"/><rect y="12" width="20" height="2" fill="#6b6a87"/><rect y="16" width="20" height="2" fill="#6b6a87"/></g><g transform="translate(220.62,220.62) scale(1.4465) rotate(0)"><rect width="20" height="2" fill="#a9b7f4"/><rect y="4" width="20" height="2" fill="#a9b7f4"/><rect y="8" width="20" height="2" fill="#a9b7f4"/><rect y="12" width="20" height="2" fill="#a9b7f4"/><rect y="16" width="20" height="2" fill="#a9b7f4"/></g><g transform="translate(256.78,220.62) scale(1.4465) rotate(0)"><rect width="20" height="2" fill="#b2bff5"/><rect y="4" width="20" height="2" fill="#b2bff5"/><rect y="8" width="20" height="2" fill="#b2bff5"/><rect y="12" width="20" height="2" fill="#b2bff5"/><rect y="16" width="20" height="2" fill="#b2bff5"/></g><rect x="292.9496625" y="220.61641249999997" width="28.933299999999996" height="28.933299999999996" fill="#ffffff"/><g transform="translate(292.95,220.62) scale(0.7235) rotate(0)"><path d="M10 5L5 0L0 5L5 10L0 15L5 20L10 15L15 20L20 15L15 10L20 5L15 0L10 5Z" fill="#4060e6"/></g><g transform="translate(307.42,220.62) scale(0.7235) rotate(0)"><path d="M10 5L5 0L0 5L5 10L0 15L5 20L10 15L15 20L20 15L15 10L20 5L15 0L10 5Z" fill="#3d3b62"/></g><g transform="translate(292.95,235.08) scale(0.7235) rotate(0)"><rect width="20" height="2" fill="#ff819f"/><rect y="4" width="20" height="2" fill="#ff819f"/><rect y="8" width="20" height="2" fill="#ff819f"/><rect y="12" width="20" height="2" fill="#ff819f"/><rect y="16" width="20" height="2" fill="#ff819f"/></g><g transform="translate(307.42,235.08) scale(0.7235) rotate(0)"><path d="M10 1L12.2451 7.90983H19.5106L13.6327 12.1803L15.8779 19.0902L10 14.8197L4.12215 19.0902L6.36729 12.1803L0.489441 7.90983H7.75487L10 1Z" fill="#7a7893"/></g><g transform="translate(329.12,220.62) scale(1.4465) rotate(0)"><rect width="20" height="2" fill="#3f5fe6"/><rect y="4" width="20" height="2" fill="#3f5fe6"/><rect y="8" width="20" height="2" fill="#3f5fe6"/><rect y="12" width="20" height="2" fill="#3f5fe6"/><rect y="16" width="20" height="2" fill="#3f5fe6"/></g><g transform="translate(365.28,220.62) scale(1.4465) rotate(0)"><rect width="20" height="2" fill="#fefdf9"/><rect y="4" width="20" height="2" fill="#fefdf9"/><rect y="8" width="20" height="2" fill="#fefdf9"/><rect y="12" width="20" height="2" fill="#fefdf9"/><rect y="16" width="20" height="2" fill="#fefdf9"/></g><g transform="translate(3.62,256.78) scale(1.4465) rotate(0)"><path d="M10 5L5 0L0 5L5 10L0 15L5 20L10 15L15 20L20 15L15 10L20 5L15 0L10 5Z" fill="#eadc86"/></g><rect x="39.78328749999999" y="256.7830375" width="28.933299999999996" height="28.933299999999996" fill="#ffffff"/><g transform="translate(39.78,256.78) scale(0.7235) rotate(0)"><path d="M10 5L5 0L0 5L5 10L0 15L5 20L10 15L15 20L20 15L15 10L20 5L15 0L10 5Z" fill="#294de3"/></g><g transform="translate(54.25,256.78) scale(0.7235) rotate(0)"><rect width="20" height="2" fill="#f0e7aa"/><rect y="4" width="20" height="2" fill="#f0e7aa"/><rect y="8" width="20" height="2" fill="#f0e7aa"/><rect y="12" width="20" height="2" fill="#f0e7aa"/><rect y="16" width="20" height="2" fill="#f0e7aa"/></g><g transform="translate(39.78,271.25) scale(0.7235) rotate(0)"><path d="M10 1L12.2451 7.90983H19.5106L13.6327 12.1803L15.8779 19.0902L10 14.8197L4.12215 19.0902L6.36729 12.1803L0.489441 7.90983H7.75487L10 1Z" fill="#ffb8c9"/></g><g transform="translate(54.25,271.25) scale(0.7235) rotate(0)"><path d="M10 5L5 0L0 5L5 10L0 15L5 20L10 15L15 20L20 15L15 10L20 5L15 0L10 5Z" fill="#605e7e"/></g><g transform="translate(75.95,256.78) scale(1.4465) rotate(0)"><rect width="20" height="2" fill="#5b77ea"/><rect y="4" width="20" height="2" fill="#5b77ea"/><rect y="8" width="20" height="2" fill="#5b77ea"/><rect y="12" width="20" height="2" fill="#5b77ea"/><rect y="16" width="20" height="2" fill="#5b77ea"/></g><g transform="translate(112.12,256.78) scale(1.4465) rotate(0)"><path d="M10 5L5 0L0 5L5 10L0 15L5 20L10 15L15 20L20 15L15 10L20 5L15 0L10 5Z" fill="#aaa9ba"/></g><rect x="148.28316249999997" y="256.7830375" width="28.933299999999996" height="28.933299999999996" fill="#ffffff"/><g transform="translate(148.28,256.78) scale(0.7235) rotate(0)"><path d="M10 1L12.2451 7.90983H19.5106L13.6327 12.1803L15.8779 19.0902L10 14.8197L4.12215 19.0902L6.36729 12.1803L0.489441 7.90983H7.75487L10 1Z" fill="#e9da80"/></g><g transform="translate(162.75,256.78) scale(0.7235) rotate(0)"><rect width="20" height="2" fill="#ff97b0"/><rect y="4" width="20" height="2" fill="#ff97b0"/><rect y="8" width="20" height="2" fill="#ff97b0"/><rect y="12" width="20" height="2" fill="#ff97b0"/><rect y="16" width="20" height="2" fill="#ff97b0"/></g><circle cx="155.51500000000001" cy="278.485" r="7.235" fill="#a4a3b5"/><circle cx="169.985" cy="278.485" r="7.235" fill="#ced6f9"/><rect x="184.44978749999999" y="256.7830375" width="28.933299999999996" height="28.933299999999996" fill="#ffffff"/><g transform="translate(184.45,256.78) scale(0.7235) rotate(0)"><rect width="20" height="2" fill="#fafafb"/><rect y="4" width="20" height="2" fill="#fafafb"/><rect y="8" width="20" height="2" fill="#fafafb"/><rect y="12" width="20" height="2" fill="#fafafb"/><rect y="16" width="20" height="2" fill="#fafafb"/></g><g transform="translate(198.92,256.78) scale(0.7235) rotate(0)"><path d="M10 1L12.2451 7.90983H19.5106L13.6327 12.1803L15.8779 19.0902L10 14.8197L4.12215 19.0902L6.36729 12.1803L0.489441 7.90983H7.75487L10 1Z" fill="#ff819f"/></g><g transform="translate(184.45,271.25) scale(0.7235) rotate(0)"><path d="M10 5L5 0L0 5L5 10L0 15L5 20L10 15L15 20L20 15L15 10L20 5L15 0L10 5Z" fill="#f5efc8"/></g><g transform="translate(198.92,271.25) scale(0.7235) rotate(0)"><path d="M10 1L12.2451 7.90983H19.5106L13.6327 12.1803L15.8779 19.0902L10 14.8197L4.12215 19.0902L6.36729 12.1803L0.489441 7.90983H7.75487L10 1Z" fill="#e9e9ee"/></g><g transform="translate(220.62,256.78) scale(1.4465) rotate(0)"><path d="M10 5L5 0L0 5L5 10L0 15L5 20L10 15L15 20L20 15L15 10L20 5L15 0L10 5Z" fill="#f4f4f6"/></g><circle cx="271.24499999999995" cy="271.24499999999995" r="14.465" fill="#ffe1e8"/><rect x="292.9496625" y="256.7830375" width="28.933299999999996" height="28.933299999999996" fill="#ffffff"/><circle cx="300.185" cy="264.015" r="7.235" fill="#565476"/><g transform="translate(307.42,256.78) scale(0.7235) rotate(0)"><path d="M10 1L12.2451 7.90983H19.5106L13.6327 12.1803L15.8779 19.0902L10 14.8197L4.12215 19.0902L6.36729 12.1803L0.489441 7.90983H7.75487L10 1Z" fill="#5471e9"/></g><g transform="translate(292.95,271.25) scale(0.7235) rotate(0)"><rect width="20" height="2" fill="#e7e7eb"/><rect y="4" width="20" height="2" fill="#e7e7eb"/><rect y="8" width="20" height="2" fill="#e7e7eb"/><rect y="12" width="20" height="2" fill="#e7e7eb"/><rect y="16" width="20" height="2" fill="#e7e7eb"/></g><g transform="translate(307.42,271.25) scale(0.7235) rotate(0)"><path d="M10 1L12.2451 7.90983H19.5106L13.6327 12.1803L15.8779 19.0902L10 14.8197L4.12215 19.0902L6.36729 12.1803L0.489441 7.90983H7.75487L10 1Z" fill="#bfbfcb"/></g><circle cx="343.585" cy="271.24499999999995" r="14.465" fill="#f7f7f9"/><rect x="365.2829125" y="256.7830375" width="28.933299999999996" height="28.933299999999996" fill="#ffffff"/><g transform="translate(365.28,256.78) scale(0.7235) rotate(0)"><path d="M10 1L12.2451 7.90983H19.5106L13.6327 12.1803L15.8779 19.0902L10 14.8197L4.12215 19.0902L6.36729 12.1803L0.489441 7.90983H7.75487L10 1Z" fill="#ffa2b8"/></g><circle cx="386.985" cy="264.015" r="7.235" fill="#686684"/><g transform="translate(365.28,271.25) scale(0.7235) rotate(0)"><path d="M10 5L5 0L0 5L5 10L0 15L5 20L10 15L15 20L20 15L15 10L20 5L15 0L10 5Z" fill="#ff84a1"/></g><g transform="translate(379.75,271.25) scale(0.7235) rotate(0)"><path d="M10 5L5 0L0 5L5 10L0 15L5 20L10 15L15 20L20 15L15 10L20 5L15 0L10 5Z" fill="#424066"/></g><g transform="translate(3.62,292.95) scale(1.4465) rotate(0)"><rect width="20" height="2" fill="#e6d774"/><rect y="4" width="20" height="2" fill="#e6d774"/><rect y="8" width="20" height="2" fill="#e6d774"/><rect y="12" width="20" height="2" fill="#e6d774"/><rect y="16" width="20" height="2" fill="#e6d774"/></g><rect x="39.78328749999999" y="292.9496625" width="28.933299999999996" height="28.933299999999996" fill="#ffffff"/><circle cx="47.015" cy="300.185" r="7.235" fill="#efe6a7"/><circle cx="61.485" cy="300.185" r="7.235" fill="#eef0fd"/><g transform="translate(39.78,307.42) scale(0.7235) rotate(0)"><rect width="20" height="2" fill="#183fe1"/><rect y="4" width="20" height="2" fill="#183fe1"/><rect y="8" width="20" height="2" fill="#183fe1"/><rect y="12" width="20" height="2" fill="#183fe1"/><rect y="16" width="20" height="2" fill="#183fe1"/></g><g transform="translate(54.25,307.42) scale(0.7235) rotate(0)"><rect width="20" height="2" fill="#acabbc"/><rect y="4" width="20" height="2" fill="#acabbc"/><rect y="8" width="20" height="2" fill="#acabbc"/><rect y="12" width="20" height="2" fill="#acabbc"/><rect y="16" width="20" height="2" fill="#acabbc"/></g><rect x="75.9499125" y="292.9496625" width="28.933299999999996" height="28.933299999999996" fill="#ffffff"/><circle cx="83.185" cy="300.185" r="7.235" fill="#4f6ce8"/><circle cx="97.655" cy="300.185" r="7.235" fill="#636180"/><g transform="translate(75.95,307.42) scale(0.7235) rotate(0)"><path d="M10 1L12.2451 7.90983H19.5106L13.6327 12.1803L15.8779 19.0902L10 14.8197L4.12215 19.0902L6.36729 12.1803L0.489441 7.90983H7.75487L10 1Z" fill="#b7b6c4"/></g><circle cx="97.655" cy="314.65500000000003" r="7.235" fill="#87869e"/><rect x="112.11653749999999" y="292.9496625" width="28.933299999999996" height="28.933299999999996" fill="#ffffff"/><circle cx="119.355" cy="300.185" r="7.235" fill="#ff6a8d"/><g transform="translate(126.58,292.95) scale(0.7235) rotate(0)"><rect width="20" height="2" fill="#c7c6d1"/><rect y="4" width="20" height="2" fill="#c7c6d1"/><rect y="8" width="20" height="2" fill="#c7c6d1"/><rect y="12" width="20" height="2" fill="#c7c6d1"/><rect y="16" width="20" height="2" fill="#c7c6d1"/></g><g transform="translate(112.12,307.42) scale(0.7235) rotate(0)"><rect width="20" height="2" fill="#ff7a9a"/><rect y="4" width="20" height="2" fill="#ff7a9a"/><rect y="8" width="20" height="2" fill="#ff7a9a"/><rect y="12" width="20" height="2" fill="#ff7a9a"/><rect y="16" width="20" height="2" fill="#ff7a9a"/></g><g transform="translate(126.58,307.42) scale(0.7235) rotate(0)"><rect width="20" height="2" fill="#9faff3"/><rect y="4" width="20" height="2" fill="#9faff3"/><rect y="8" width="20" height="2" fill="#9faff3"/><rect y="12" width="20" height="2" fill="#9faff3"/><rect y="16" width="20" height="2" fill="#9faff3"/></g><circle cx="162.745" cy="307.41499999999996" r="14.465" fill="#ffcdd9"/><rect x="184.44978749999999" y="292.9496625" width="28.933299999999996" height="28.933299999999996" fill="#ffffff"/><g transform="translate(184.45,292.95) scale(0.7235) rotate(0)"><path d="M10 1L12.2451 7.90983H19.5106L13.6327 12.1803L15.8779 19.0902L10 14.8197L4.12215 19.0902L6.36729 12.1803L0.489441 7.90983H7.75487L10 1Z" fill="#5e5c7c"/></g><g transform="translate(198.92,292.95) scale(0.7235) rotate(0)"><path d="M10 1L12.2451 7.90983H19.5106L13.6327 12.1803L15.8779 19.0902L10 14.8197L4.12215 19.0902L6.36729 12.1803L0.489441 7.90983H7.75487L10 1Z" fill="#eee39f"/></g><g transform="translate(184.45,307.42) scale(0.7235) rotate(0)"><path d="M10 1L12.2451 7.90983H19.5106L13.6327 12.1803L15.8779 19.0902L10 14.8197L4.12215 19.0902L6.36729 12.1803L0.489441 7.90983H7.75487L10 1Z" fill="#ff4e78"/></g><g transform="translate(198.92,307.42) scale(0.7235) rotate(0)"><path d="M10 1L12.2451 7.90983H19.5106L13.6327 12.1803L15.8779 19.0902L10 14.8197L4.12215 19.0902L6.36729 12.1803L0.489441 7.90983H7.75487L10 1Z" fill="#d6ddfa"/></g><g transform="translate(220.62,292.95) scale(1.4465) rotate(0)"><path d="M10 5L5 0L0 5L5 10L0 15L5 20L10 15L15 20L20 15L15 10L20 5L15 0L10 5Z" fill="#ffbccc"/></g><g transform="translate(256.78,292.95) scale(1.4465) rotate(0)"><path d="M10 1L12.2451 7.90983H19.5106L13.6327 12.1803L15.8779 19.0902L10 14.8197L4.12215 19.0902L6.36729 12.1803L0.489441 7.90983H7.75487L10 1Z" fill="#7d93ee"/></g><g transform="translate(292.95,292.95) scale(1.4465) rotate(0)"><rect width="20" height="2" fill="#777591"/><rect y="4" width="20" height="2" fill="#777591"/><rect y="8" width="20" height="2" fill="#777591"/><rect y="12" width="20" height="2" fill="#777591"/><rect y="16" width="20" height="2" fill="#777591"/></g><g transform="translate(329.12,292.95) scale(1.4465) rotate(0)"><rect width="20" height="2" fill="#ff4f79"/><rect y="4" width="20" height="2" fill="#ff4f79"/><rect y="8" width="20" height="2" fill="#ff4f79"/><rect y="12" width="20" height="2" fill="#ff4f79"/><rect y="16" width="20" height="2" fill="#ff4f79"/></g><g transform="translate(365.28,292.95) scale(1.4465) rotate(0)"><path d="M10 5L5 0L0 5L5 10L0 15L5 20L10 15L15 20L20 15L15 10L20 5L15 0L10 5Z" fill="#fafafb"/></g></g></svg>