<?xml version="1.0" standalone="no"?><svg xmlns:xlink="http://www.w3.org/1999/xlink" xmlns="http://www.w3.org/2000/svg" viewBox="0 0 1000 799.9983636378514" preserveAspectRatio="xMaxYMax slice"><g transform="scale(2.7272702479361386)"><rect x="0" y="0" width="403.33287499999994" height="329.999625" fill="#ffffff"/><rect x="14.666649999999999" y="14.666649999999999" width="7.3333249999999985" height="7.3333249999999985" fill="#ffffff"/><g transform="translate(18.33,14.67) scale(0.1835) rotate(0)"><path d="M10 1L12.2451 7.90983H19.5106L13.6327 12.1803L15.8779 19.0902L10 14.8197L4.12215 19.0902L6.36729 12.1803L0.489441 7.90983H7.75487L10 1Z" fill="#cdd5f8"/></g><g transform="translate(14.67,18.33) scale(0.1835) rotate(0)"><path d="M10 1L12.2451 7.90983H19.5106L13.6327 12.1803L15.8779 19.0902L10 14.8197L4.12215 19.0902L6.36729 12.1803L0.489441 7.90983H7.75487L10 1Z" fill="#4161e6"/></g><g transform="translate(18.33,18.33) scale(0.1835) rotate(0)"><path d="M10 1L12.2451 7.90983H19.5106L13.6327 12.1803L15.8779 19.0902L10 14.8197L4.12215 19.0902L6.36729 12.1803L0.489441 7.90983H7.75487L10 1Z" fill="#ff85a2"/></g><rect x="51.33327499999999" y="14.666649999999999" width="7.3333249999999985" height="7.3333249999999985" fill="#ffffff"/><g transform="translate(51.33,14.67) scale(0.1835) rotate(0)"><path d="M10 1L12.2451 7.90983H19.5106L13.6327 12.1803L15.8779 19.0902L10 14.8197L4.12215 19.0902L6.36729 12.1803L0.489441 7.90983H7.75487L10 1Z" fill="#ff567e"/></g><g transform="translate(55,14.67) scale(0.1835) rotate(0)"><path d="M10 1L12.2451 7.90983H19.5106L13.6327 12.1803L15.8779 19.0902L10 14.8197L4.12215 19.0902L6.36729 12.1803L0.489441 7.90983H7.75487L10 1Z" fill="#2b4fe3"/></g><rect x="124.666525" y="14.666649999999999" width="7.3333249999999985" height="7.3333249999999985" fill="#ffffff"/><g transform="translate(124.67,14.67) scale(0.1835) rotate(0)"><path d="M10 1L12.2451 7.90983H19.5106L13.6327 12.1803L15.8779 19.0902L10 14.8197L4.12215 19.0902L6.36729 12.1803L0.489441 7.90983H7.75487L10 1Z" fill="#ff96af"/></g><g transform="translate(124.67,18.33) scale(0.1835) rotate(0)"><path d="M10 1L12.2451 7.90983H19.5106L13.6327 12.1803L15.8779 19.0902L10 14.8197L4.12215 19.0902L6.36729 12.1803L0.489441 7.90983H7.75487L10 1Z" fill="#fafbfe"/></g><g transform="translate(128.33,18.33) scale(0.1835) rotate(0)"><path d="M10 1L12.2451 7.90983H19.5106L13.6327 12.1803L15.8779 19.0902L10 14.8197L4.12215 19.0902L6.36729 12.1803L0.489441 7.90983H7.75487L10 1Z" fill="#ff83a0"/></g><rect x="197.999775" y="14.666649999999999" width="7.3333249999999985" height="7.3333249999999985" fill="#ffffff"/><g transform="translate(198,14.67) scale(0.1835) rotate(0)"><path d="M10 1L12.2451 7.90983H19.5106L13.6327 12.1803L15.8779 19.0902L10 14.8197L4.12215 19.0902L6.36729 12.1803L0.489441 7.90983H7.75487L10 1Z" fill="#647eeb"/></g><g transform="translate(201.67,14.67) scale(0.1835) rotate(0)"><path d="M10 1L12.2451 7.90983H19.5106L13.6327 12.1803L15.8779 19.0902L10 14.8197L4.12215 19.0902L6.36729 12.1803L0.489441 7.90983H7.75487L10 1Z" fill="#ff6489"/></g><g transform="translate(201.67,18.33) scale(0.1835) rotate(0)"><path d="M10 1L12.2451 7.90983H19.5106L13.6327 12.1803L15.8779 19.0902L10 14.8197L4.12215 19.0902L6.36729 12.1803L0.489441 7.90983H7.75487L10 1Z" fill="#ffaabe"/></g><g transform="translate(308,14.67) scale(0.3665) rotate(0)"><path d="M10 1L12.2451 7.90983H19.5106L13.6327 12.1803L15.8779 19.0902L10 14.8197L4.12215 19.0902L6.36729 12.1803L0.489441 7.90983H7.75487L10 1Z" fill="#ffabbf"/></g><rect x="344.666275" y="14.666649999999999" width="7.3333249999999985" height="7.3333249999999985" fill="#ffffff"/><g transform="translate(344.67,14.67) scale(0.1835) rotate(0)"><path d="M10 1L12.2451 7.90983H19.5106L13.6327 12.1803L15.8779 19.0902L10 14.8197L4.12215 19.0902L6.36729 12.1803L0.489441 7.90983H7.75487L10 1Z" fill="#ff92ac"/></g><g transform="translate(344.67,18.33) scale(0.1835) rotate(0)"><path d="M10 1L12.2451 7.90983H19.5106L13.6327 12.1803L15.8779 19.0902L10 14.8197L4.12215 19.0902L6.36729 12.1803L0.489441 7.90983H7.75487L10 1Z" fill="#c6d0f8"/></g><rect x="381.3329" y="14.666649999999999" width="7.3333249999999985" height="7.3333249999999985" fill="#ffffff"/><g transform="translate(385,14.67) scale(0.1835) rotate(0)"><path d="M10 1L12.2451 7.90983H19.5106L13.6327 12.1803L15.8779 19.0902L10 14.8197L4.12215 19.0902L6.36729 12.1803L0.489441 7.90983H7.75487L10 1Z" fill="#ffcad6"/></g><rect x="14.666649999999999" y="51.33327499999999" width="7.3333249999999985" height="7.3333249999999985" fill="#ffffff"/><g transform="translate(14.67,51.33) scale(0.1835) rotate(0)"><path d="M10 1L12.2451 7.90983H19.5106L13.6327 12.1803L15.8779 19.0902L10 14.8197L4.12215 19.0902L6.36729 12.1803L0.489441 7.90983H7.75487L10 1Z" fill="#758ced"/></g><g transform="translate(14.67,55) scale(0.1835) rotate(0)"><path d="M10 1L12.2451 7.90983H19.5106L13.6327 12.1803L15.8779 19.0902L10 14.8197L4.12215 19.0902L6.36729 12.1803L0.489441 7.90983H7.75487L10 1Z" fill="#92a5f1"/></g><g transform="translate(18.33,55) scale(0.1835) rotate(0)"><path d="M10 1L12.2451 7.90983H19.5106L13.6327 12.1803L15.8779 19.0902L10 14.8197L4.12215 19.0902L6.36729 12.1803L0.489441 7.90983H7.75487L10 1Z" fill="#e3e8fb"/></g><g transform="translate(51.33,51.33) scale(0.3665) rotate(0)"><path d="M10 1L12.2451 7.90983H19.5106L13.6327 12.1803L15.8779 19.0902L10 14.8197L4.12215 19.0902L6.36729 12.1803L0.489441 7.90983H7.75487L10 1Z" fill="#a3b2f3"/></g><rect x="87.9999" y="51.33327499999999" width="7.3333249999999985" height="7.3333249999999985" fill="#ffffff"/><g transform="translate(88,51.33) scale(0.1835) rotate(0)"><path d="M10 1L12.2451 7.90983H19.5106L13.6327 12.1803L15.8779 19.0902L10 14.8197L4.12215 19.0902L6.36729 12.1803L0.489441 7.90983H7.75487L10 1Z" fill="#ff3f6d"/></g><g transform="translate(88,55) scale(0.1835) rotate(0)"><path d="M10 1L12.2451 7.90983H19.5106L13.6327 12.1803L15.8779 19.0902L10 14.8197L4.12215 19.0902L6.36729 12.1803L0.489441 7.90983H7.75487L10 1Z" fill="#99aaf2"/></g><rect x="161.33315" y="51.33327499999999" width="7.3333249999999985" height="7.3333249999999985" fill="#ffffff"/><g transform="translate(161.33,51.33) scale(0.1835) rotate(0)"><path d="M10 1L12.2451 7.90983H19.5106L13.6327 12.1803L15.8779 19.0902L10 14.8197L4.12215 19.0902L6.36729 12.1803L0.489441 7.90983H7.75487L10 1Z" fill="#fffafb"/></g><g transform="translate(165,51.33) scale(0.1835) rotate(0)"><path d="M10 1L12.2451 7.90983H19.5106L13.6327 12.1803L15.8779 19.0902L10 14.8197L4.12215 19.0902L6.36729 12.1803L0.489441 7.90983H7.75487L10 1Z" fill="#d5dcf9"/></g><g transform="translate(165,55) scale(0.1835) rotate(0)"><path d="M10 1L12.2451 7.90983H19.5106L13.6327 12.1803L15.8779 19.0902L10 14.8197L4.12215 19.0902L6.36729 12.1803L0.489441 7.90983H7.75487L10 1Z" fill="#7e94ee"/></g><rect x="234.66639999999998" y="51.33327499999999" width="7.3333249999999985" height="7.3333249999999985" fill="#ffffff"/><g transform="translate(234.67,51.33) scale(0.1835) rotate(0)"><path d="M10 1L12.2451 7.90983H19.5106L13.6327 12.1803L15.8779 19.0902L10 14.8197L4.12215 19.0902L6.36729 12.1803L0.489441 7.90983H7.75487L10 1Z" fill="#a4b4f3"/></g><g transform="translate(238.33,51.33) scale(0.1835) rotate(0)"><path d="M10 1L12.2451 7.90983H19.5106L13.6327 12.1803L15.8779 19.0902L10 14.8197L4.12215 19.0902L6.36729 12.1803L0.489441 7.90983H7.75487L10 1Z" fill="#ffc6d4"/></g><g transform="translate(234.67,55) scale(0.1835) rotate(0)"><path d="M10 1L12.2451 7.90983H19.5106L13.6327 12.1803L15.8779 19.0902L10 14.8197L4.12215 19.0902L6.36729 12.1803L0.489441 7.90983H7.75487L10 1Z" fill="#1e44e2"/></g><rect x="271.33302499999996" y="51.33327499999999" width="7.3333249999999985" height="7.3333249999999985" fill="#ffffff"/><g transform="translate(271.33,51.33) scale(0.1835) rotate(0)"><path d="M10 1L12.2451 7.90983H19.5106L13.6327 12.1803L15.8779 19.0902L10 14.8197L4.12215 19.0902L6.36729 12.1803L0.489441 7.90983H7.75487L10 1Z" fill="#ffa7bc"/></g><g transform="translate(275,51.33) scale(0.1835) rotate(0)"><path d="M10 1L12.2451 7.90983H19.5106L13.6327 12.1803L15.8779 19.0902L10 14.8197L4.12215 19.0902L6.36729 12.1803L0.489441 7.90983H7.75487L10 1Z" fill="#ff7394"/></g><rect x="344.666275" y="51.33327499999999" width="7.3333249999999985" height="7.3333249999999985" fill="#ffffff"/><rect x="381.3329" y="51.33327499999999" width="7.3333249999999985" height="7.3333249999999985" fill="#ffffff"/><g transform="translate(381.33,51.33) scale(0.1835) rotate(0)"><path d="M10 1L12.2451 7.90983H19.5106L13.6327 12.1803L15.8779 19.0902L10 14.8197L4.12215 19.0902L6.36729 12.1803L0.489441 7.90983H7.75487L10 1Z" fill="#395ae5"/></g><g transform="translate(385,51.33) scale(0.1835) rotate(0)"><path d="M10 1L12.2451 7.90983H19.5106L13.6327 12.1803L15.8779 19.0902L10 14.8197L4.12215 19.0902L6.36729 12.1803L0.489441 7.90983H7.75487L10 1Z" fill="#ff6b8e"/></g><g transform="translate(385,55) scale(0.1835) rotate(0)"><path d="M10 1L12.2451 7.90983H19.5106L13.6327 12.1803L15.8779 19.0902L10 14.8197L4.12215 19.0902L6.36729 12.1803L0.489441 7.90983H7.75487L10 1Z" fill="#4c6ae8"/></g><rect x="51.33327499999999" y="87.9999" width="7.3333249999999985" height="7.3333249999999985" fill="#ffffff"/><g transform="translate(55,88) scale(0.1835) rotate(0)"><path d="M10 1L12.2451 7.90983H19.5106L13.6327 12.1803L15.8779 19.0902L10 14.8197L4.12215 19.0902L6.36729 12.1803L0.489441 7.90983H7.75487L10 1Z" fill="#ffaabe"/></g><g transform="translate(51.33,91.67) scale(0.1835) rotate(0)"><path d="M10 1L12.2451 7.90983H19.5106L13.6327 12.1803L15.8779 19.0902L10 14.8197L4.12215 19.0902L6.36729 12.1803L0.489441 7.90983H7.75487L10 1Z" fill="#3255e4"/></g><g transform="translate(55,91.67) scale(0.1835) rotate(0)"><path d="M10 1L12.2451 7.90983H19.5106L13.6327 12.1803L15.8779 19.0902L10 14.8197L4.12215 19.0902L6.36729 12.1803L0.489441 7.90983H7.75487L10 1Z" fill="#d5dcfa"/></g><rect x="87.9999" y="87.9999" width="7.3333249999999985" height="7.3333249999999985" fill="#ffffff"/><g transform="translate(88,88) scale(0.1835) rotate(0)"><path d="M10 1L12.2451 7.90983H19.5106L13.6327 12.1803L15.8779 19.0902L10 14.8197L4.12215 19.0902L6.36729 12.1803L0.489441 7.90983H7.75487L10 1Z" fill="#b2bff5"/></g><g transform="translate(91.67,88) scale(0.1835) rotate(0)"><path d="M10 1L12.2451 7.90983H19.5106L13.6327 12.1803L15.8779 19.0902L10 14.8197L4.12215 19.0902L6.36729 12.1803L0.489441 7.90983H7.75487L10 1Z" fill="#b8c4f6"/></g><g transform="translate(91.67,91.67) scale(0.1835) rotate(0)"><path d="M10 1L12.2451 7.90983H19.5106L13.6327 12.1803L15.8779 19.0902L10 14.8197L4.12215 19.0902L6.36729 12.1803L0.489441 7.90983H7.75487L10 1Z" fill="#ffabbf"/></g><rect x="197.999775" y="87.9999" width="7.3333249999999985" height="7.3333249999999985" fill="#ffffff"/><g transform="translate(198,88) scale(0.1835) rotate(0)"><path d="M10 1L12.2451 7.90983H19.5106L13.6327 12.1803L15.8779 19.0902L10 14.8197L4.12215 19.0902L6.36729 12.1803L0.489441 7.90983H7.75487L10 1Z" fill="#4564e7"/></g><g transform="translate(198,91.67) scale(0.1835) rotate(0)"><path d="M10 1L12.2451 7.90983H19.5106L13.6327 12.1803L15.8779 19.0902L10 14.8197L4.12215 19.0902L6.36729 12.1803L0.489441 7.90983H7.75487L10 1Z" fill="#ff4f79"/></g><g transform="translate(201.67,91.67) scale(0.1835) rotate(0)"><path d="M10 1L12.2451 7.90983H19.5106L13.6327 12.1803L15.8779 19.0902L10 14.8197L4.12215 19.0902L6.36729 12.1803L0.489441 7.90983H7.75487L10 1Z" fill="#ff819f"/></g><rect x="234.66639999999998" y="87.9999" width="7.3333249999999985" height="7.3333249999999985" fill="#ffffff"/><g transform="translate(234.67,88) scale(0.1835) rotate(0)"><path d="M10 1L12.2451 7.90983H19.5106L13.6327 12.1803L15.8779 19.0902L10 14.8197L4.12215 19.0902L6.36729 12.1803L0.489441 7.90983H7.75487L10 1Z" fill="#5672e9"/></g><g transform="translate(234.67,91.67) scale(0.1835) rotate(0)"><path d="M10 1L12.2451 7.90983H19.5106L13.6327 12.1803L15.8779 19.0902L10 14.8197L4.12215 19.0902L6.36729 12.1803L0.489441 7.90983H7.75487L10 1Z" fill="#ff7797"/></g><g transform="translate(238.33,91.67) scale(0.1835) rotate(0)"><path d="M10 1L12.2451 7.90983H19.5106L13.6327 12.1803L15.8779 19.0902L10 14.8197L4.12215 19.0902L6.36729 12.1803L0.489441 7.90983H7.75487L10 1Z" fill="#a0b0f3"/></g><rect x="271.33302499999996" y="87.9999" width="7.3333249999999985" height="7.3333249999999985" fill="#ffffff"/><g transform="translate(271.33,88) scale(0.1835) rotate(0)"><path d="M10 1L12.2451 7.90983H19.5106L13.6327 12.1803L15.8779 19.0902L10 14.8197L4.12215 19.0902L6.36729 12.1803L0.489441 7.90983H7.75487L10 1Z" fill="#eef1fd"/></g><g transform="translate(275,88) scale(0.1835) rotate(0)"><path d="M10 1L12.2451 7.90983H19.5106L13.6327 12.1803L15.8779 19.0902L10 14.8197L4.12215 19.0902L6.36729 12.1803L0.489441 7.90983H7.75487L10 1Z" fill="#ff688c"/></g><g transform="translate(275,91.67) scale(0.1835) rotate(0)"><path d="M10 1L12.2451 7.90983H19.5106L13.6327 12.1803L15.8779 19.0902L10 14.8197L4.12215 19.0902L6.36729 12.1803L0.489441 7.90983H7.75487L10 1Z" fill="#ffa8bd"/></g><rect x="381.3329" y="87.9999" width="7.3333249999999985" height="7.3333249999999985" fill="#ffffff"/><g transform="translate(381.33,88) scale(0.1835) rotate(0)"><path d="M10 1L12.2451 7.90983H19.5106L13.6327 12.1803L15.8779 19.0902L10 14.8197L4.12215 19.0902L6.36729 12.1803L0.489441 7.90983H7.75487L10 1Z" fill="#ffc6d3"/></g><g transform="translate(385,88) scale(0.1835) rotate(0)"><path d="M10 1L12.2451 7.90983H19.5106L13.6327 12.1803L15.8779 19.0902L10 14.8197L4.12215 19.0902L6.36729 12.1803L0.489441 7.90983H7.75487L10 1Z" fill="#4b69e8"/></g><g transform="translate(385,91.67) scale(0.1835) rotate(0)"><path d="M10 1L12.2451 7.90983H19.5106L13.6327 12.1803L15.8779 19.0902L10 14.8197L4.12215 19.0902L6.36729 12.1803L0.489441 7.90983H7.75487L10 1Z" fill="#d0d8f9"/></g><rect x="87.9999" y="124.666525" width="7.3333249999999985" height="7.3333249999999985" fill="#ffffff"/><g transform="translate(88,124.67) scale(0.1835) rotate(0)"><path d="M10 1L12.2451 7.90983H19.5106L13.6327 12.1803L15.8779 19.0902L10 14.8197L4.12215 19.0902L6.36729 12.1803L0.489441 7.90983H7.75487L10 1Z" fill="#284de3"/></g><g transform="translate(91.67,124.67) scale(0.1835) rotate(0)"><path d="M10 1L12.2451 7.90983H19.5106L13.6327 12.1803L15.8779 19.0902L10 14.8197L4.12215 19.0902L6.36729 12.1803L0.489441 7.90983H7.75487L10 1Z" fill="#1e44e2"/></g><g transform="translate(88,128.33) scale(0.1835) rotate(0)"><path d="M10 1L12.2451 7.90983H19.5106L13.6327 12.1803L15.8779 19.0902L10 14.8197L4.12215 19.0902L6.36729 12.1803L0.489441 7.90983H7.75487L10 1Z" fill="#889cf0"/></g><g transform="translate(91.67,128.33) scale(0.1835) rotate(0)"><path d="M10 1L12.2451 7.90983H19.5106L13.6327 12.1803L15.8779 19.0902L10 14.8197L4.12215 19.0902L6.36729 12.1803L0.489441 7.90983H7.75487L10 1Z" fill="#ff91ab"/></g><g transform="translate(124.67,124.67) scale(0.3665) rotate(0)"><path d="M10 1L12.2451 7.90983H19.5106L13.6327 12.1803L15.8779 19.0902L10 14.8197L4.12215 19.0902L6.36729 12.1803L0.489441 7.90983H7.75487L10 1Z" fill="#fff2f5"/></g><rect x="161.33315" y="124.666525" width="7.3333249999999985" height="7.3333249999999985" fill="#ffffff"/><g transform="translate(161.33,124.67) scale(0.1835) rotate(0)"><path d="M10 1L12.2451 7.90983H19.5106L13.6327 12.1803L15.8779 19.0902L10 14.8197L4.12215 19.0902L6.36729 12.1803L0.489441 7.90983H7.75487L10 1Z" fill="#ffc1d0"/></g><g transform="translate(165,124.67) scale(0.1835) rotate(0)"><path d="M10 1L12.2451 7.90983H19.5106L13.6327 12.1803L15.8779 19.0902L10 14.8197L4.12215 19.0902L6.36729 12.1803L0.489441 7.90983H7.75487L10 1Z" fill="#254ae3"/></g><g transform="translate(161.33,128.33) scale(0.1835) rotate(0)"><path d="M10 1L12.2451 7.90983H19.5106L13.6327 12.1803L15.8779 19.0902L10 14.8197L4.12215 19.0902L6.36729 12.1803L0.489441 7.90983H7.75487L10 1Z" fill="#ffc5d3"/></g><g transform="translate(165,128.33) scale(0.1835) rotate(0)"><path d="M10 1L12.2451 7.90983H19.5106L13.6327 12.1803L15.8779 19.0902L10 14.8197L4.12215 19.0902L6.36729 12.1803L0.489441 7.90983H7.75487L10 1Z" fill="#4766e7"/></g><g transform="translate(198,124.67) scale(0.3665) rotate(0)"><path d="M10 1L12.2451 7.90983H19.5106L13.6327 12.1803L15.8779 19.0902L10 14.8197L4.12215 19.0902L6.36729 12.1803L0.489441 7.90983H7.75487L10 1Z" fill="#bac6f6"/></g><rect x="234.66639999999998" y="124.666525" width="7.3333249999999985" height="7.3333249999999985" fill="#ffffff"/><g transform="translate(234.67,124.67) scale(0.1835) rotate(0)"><path d="M10 1L12.2451 7.90983H19.5106L13.6327 12.1803L15.8779 19.0902L10 14.8197L4.12215 19.0902L6.36729 12.1803L0.489441 7.90983H7.75487L10 1Z" fill="#a0b0f3"/></g><g transform="translate(238.33,124.67) scale(0.1835) rotate(0)"><path d="M10 1L12.2451 7.90983H19.5106L13.6327 12.1803L15.8779 19.0902L10 14.8197L4.12215 19.0902L6.36729 12.1803L0.489441 7.90983H7.75487L10 1Z" fill="#ff6c8f"/></g><g transform="translate(238.33,128.33) scale(0.1835) rotate(0)"><path d="M10 1L12.2451 7.90983H19.5106L13.6327 12.1803L15.8779 19.0902L10 14.8197L4.12215 19.0902L6.36729 12.1803L0.489441 7.90983H7.75487L10 1Z" fill="#dde3fb"/></g><rect x="271.33302499999996" y="124.666525" width="7.3333249999999985" height="7.3333249999999985" fill="#ffffff"/><g transform="translate(271.33,124.67) scale(0.1835) rotate(0)"><path d="M10 1L12.2451 7.90983H19.5106L13.6327 12.1803L15.8779 19.0902L10 14.8197L4.12215 19.0902L6.36729 12.1803L0.489441 7.90983H7.75487L10 1Z" fill="#ffe2e9"/></g><g transform="translate(275,124.67) scale(0.1835) rotate(0)"><path d="M10 1L12.2451 7.90983H19.5106L13.6327 12.1803L15.8779 19.0902L10 14.8197L4.12215 19.0902L6.36729 12.1803L0.489441 7.90983H7.75487L10 1Z" fill="#ff406d"/></g><g transform="translate(271.33,128.33) scale(0.1835) rotate(0)"><path d="M10 1L12.2451 7.90983H19.5106L13.6327 12.1803L15.8779 19.0902L10 14.8197L4.12215 19.0902L6.36729 12.1803L0.489441 7.90983H7.75487L10 1Z" fill="#bac6f6"/></g><g transform="translate(275,128.33) scale(0.1835) rotate(0)"><path d="M10 1L12.2451 7.90983H19.5106L13.6327 12.1803L15.8779 19.0902L10 14.8197L4.12215 19.0902L6.36729 12.1803L0.489441 7.90983H7.75487L10 1Z" fill="#1e44e2"/></g><g transform="translate(308,124.67) scale(0.3665) rotate(0)"><path d="M10 1L12.2451 7.90983H19.5106L13.6327 12.1803L15.8779 19.0902L10 14.8197L4.12215 19.0902L6.36729 12.1803L0.489441 7.90983H7.75487L10 1Z" fill="#ffdbe3"/></g><g transform="translate(381.33,124.67) scale(0.3665) rotate(0)"><path d="M10 1L12.2451 7.90983H19.5106L13.6327 12.1803L15.8779 19.0902L10 14.8197L4.12215 19.0902L6.36729 12.1803L0.489441 7.90983H7.75487L10 1Z" fill="#657feb"/></g><rect x="14.666649999999999" y="161.33315" width="7.3333249999999985" height="7.3333249999999985" fill="#ffffff"/><g transform="translate(14.67,161.33) scale(0.1835) rotate(0)"><path d="M10 1L12.2451 7.90983H19.5106L13.6327 12.1803L15.8779 19.0902L10 14.8197L4.12215 19.0902L6.36729 12.1803L0.489441 7.90983H7.75487L10 1Z" fill="#ff517a"/></g><g transform="translate(18.33,161.33) scale(0.1835) rotate(0)"><path d="M10 1L12.2451 7.90983H19.5106L13.6327 12.1803L15.8779 19.0902L10 14.8197L4.12215 19.0902L6.36729 12.1803L0.489441 7.90983H7.75487L10 1Z" fill="#9daef2"/></g><g transform="translate(14.67,165) scale(0.1835) rotate(0)"><path d="M10 1L12.2451 7.90983H19.5106L13.6327 12.1803L15.8779 19.0902L10 14.8197L4.12215 19.0902L6.36729 12.1803L0.489441 7.90983H7.75487L10 1Z" fill="#ff577f"/></g><g transform="translate(18.33,165) scale(0.1835) rotate(0)"><path d="M10 1L12.2451 7.90983H19.5106L13.6327 12.1803L15.8779 19.0902L10 14.8197L4.12215 19.0902L6.36729 12.1803L0.489441 7.90983H7.75487L10 1Z" fill="#ffc8d5"/></g><rect x="51.33327499999999" y="161.33315" width="7.3333249999999985" height="7.3333249999999985" fill="#ffffff"/><g transform="translate(51.33,161.33) scale(0.1835) rotate(0)"><path d="M10 1L12.2451 7.90983H19.5106L13.6327 12.1803L15.8779 19.0902L10 14.8197L4.12215 19.0902L6.36729 12.1803L0.489441 7.90983H7.75487L10 1Z" fill="#e2e7fb"/></g><rect x="87.9999" y="161.33315" width="7.3333249999999985" height="7.3333249999999985" fill="#ffffff"/><g transform="translate(88,161.33) scale(0.1835) rotate(0)"><path d="M10 1L12.2451 7.90983H19.5106L13.6327 12.1803L15.8779 19.0902L10 14.8197L4.12215 19.0902L6.36729 12.1803L0.489441 7.90983H7.75487L10 1Z" fill="#ff688c"/></g><g transform="translate(91.67,161.33) scale(0.1835) rotate(0)"><path d="M10 1L12.2451 7.90983H19.5106L13.6327 12.1803L15.8779 19.0902L10 14.8197L4.12215 19.0902L6.36729 12.1803L0.489441 7.90983H7.75487L10 1Z" fill="#a5b4f3"/></g><g transform="translate(88,165) scale(0.1835) rotate(0)"><path d="M10 1L12.2451 7.90983H19.5106L13.6327 12.1803L15.8779 19.0902L10 14.8197L4.12215 19.0902L6.36729 12.1803L0.489441 7.90983H7.75487L10 1Z" fill="#ffc6d3"/></g><g transform="translate(91.67,165) scale(0.1835) rotate(0)"><path d="M10 1L12.2451 7.90983H19.5106L13.6327 12.1803L15.8779 19.0902L10 14.8197L4.12215 19.0902L6.36729 12.1803L0.489441 7.90983H7.75487L10 1Z" fill="#ffedf2"/></g><rect x="124.666525" y="161.33315" width="7.3333249999999985" height="7.3333249999999985" fill="#ffffff"/><g transform="translate(128.33,161.33) scale(0.1835) rotate(0)"><path d="M10 1L12.2451 7.90983H19.5106L13.6327 12.1803L15.8779 19.0902L10 14.8197L4.12215 19.0902L6.36729 12.1803L0.489441 7.90983H7.75487L10 1Z" fill="#a3b2f3"/></g><rect x="161.33315" y="161.33315" width="7.3333249999999985" height="7.3333249999999985" fill="#ffffff"/><g transform="translate(161.33,161.33) scale(0.1835) rotate(0)"><path d="M10 1L12.2451 7.90983H19.5106L13.6327 12.1803L15.8779 19.0902L10 14.8197L4.12215 19.0902L6.36729 12.1803L0.489441 7.90983H7.75487L10 1Z" fill="#ff90ab"/></g><g transform="translate(165,161.33) scale(0.1835) rotate(0)"><path d="M10 1L12.2451 7.90983H19.5106L13.6327 12.1803L15.8779 19.0902L10 14.8197L4.12215 19.0902L6.36729 12.1803L0.489441 7.90983H7.75487L10 1Z" fill="#ff6489"/></g><g transform="translate(161.33,165) scale(0.1835) rotate(0)"><path d="M10 1L12.2451 7.90983H19.5106L13.6327 12.1803L15.8779 19.0902L10 14.8197L4.12215 19.0902L6.36729 12.1803L0.489441 7.90983H7.75487L10 1Z" fill="#899df0"/></g><g transform="translate(165,165) scale(0.1835) rotate(0)"><path d="M10 1L12.2451 7.90983H19.5106L13.6327 12.1803L15.8779 19.0902L10 14.8197L4.12215 19.0902L6.36729 12.1803L0.489441 7.90983H7.75487L10 1Z" fill="#4060e6"/></g><rect x="197.999775" y="161.33315" width="7.3333249999999985" height="7.3333249999999985" fill="#ffffff"/><g transform="translate(198,161.33) scale(0.1835) rotate(0)"><path d="M10 1L12.2451 7.90983H19.5106L13.6327 12.1803L15.8779 19.0902L10 14.8197L4.12215 19.0902L6.36729 12.1803L0.489441 7.90983H7.75487L10 1Z" fill="#ff577f"/></g><g transform="translate(201.67,161.33) scale(0.1835) rotate(0)"><path d="M10 1L12.2451 7.90983H19.5106L13.6327 12.1803L15.8779 19.0902L10 14.8197L4.12215 19.0902L6.36729 12.1803L0.489441 7.90983H7.75487L10 1Z" fill="#ff557e"/></g><g transform="translate(198,165) scale(0.1835) rotate(0)"><path d="M10 1L12.2451 7.90983H19.5106L13.6327 12.1803L15.8779 19.0902L10 14.8197L4.12215 19.0902L6.36729 12.1803L0.489441 7.90983H7.75487L10 1Z" fill="#d1d8f9"/></g><g transform="translate(201.67,165) scale(0.1835) rotate(0)"><path d="M10 1L12.2451 7.90983H19.5106L13.6327 12.1803L15.8779 19.0902L10 14.8197L4.12215 19.0902L6.36729 12.1803L0.489441 7.90983H7.75487L10 1Z" fill="#dce2fa"/></g><rect x="234.66639999999998" y="161.33315" width="7.3333249999999985" height="7.3333249999999985" fill="#ffffff"/><g transform="translate(234.67,161.33) scale(0.1835) rotate(0)"><path d="M10 1L12.2451 7.90983H19.5106L13.6327 12.1803L15.8779 19.0902L10 14.8197L4.12215 19.0902L6.36729 12.1803L0.489441 7.90983H7.75487L10 1Z" fill="#7a91ee"/></g><g transform="translate(234.67,165) scale(0.1835) rotate(0)"><path d="M10 1L12.2451 7.90983H19.5106L13.6327 12.1803L15.8779 19.0902L10 14.8197L4.12215 19.0902L6.36729 12.1803L0.489441 7.90983H7.75487L10 1Z" fill="#abbaf4"/></g><rect x="271.33302499999996" y="161.33315" width="7.3333249999999985" height="7.3333249999999985" fill="#ffffff"/><g transform="translate(275,161.33) scale(0.1835) rotate(0)"><path d="M10 1L12.2451 7.90983H19.5106L13.6327 12.1803L15.8779 19.0902L10 14.8197L4.12215 19.0902L6.36729 12.1803L0.489441 7.90983H7.75487L10 1Z" fill="#ffe0e7"/></g><g transform="translate(271.33,165) scale(0.1835) rotate(0)"><path d="M10 1L12.2451 7.90983H19.5106L13.6327 12.1803L15.8779 19.0902L10 14.8197L4.12215 19.0902L6.36729 12.1803L0.489441 7.90983H7.75487L10 1Z" fill="#ffc1cf"/></g><g transform="translate(275,165) scale(0.1835) rotate(0)"><path d="M10 1L12.2451 7.90983H19.5106L13.6327 12.1803L15.8779 19.0902L10 14.8197L4.12215 19.0902L6.36729 12.1803L0.489441 7.90983H7.75487L10 1Z" fill="#adbbf4"/></g><rect x="307.99965" y="161.33315" width="7.3333249999999985" height="7.3333249999999985" fill="#ffffff"/><g transform="translate(308,161.33) scale(0.1835) rotate(0)"><path d="M10 1L12.2451 7.90983H19.5106L13.6327 12.1803L15.8779 19.0902L10 14.8197L4.12215 19.0902L6.36729 12.1803L0.489441 7.90983H7.75487L10 1Z" fill="#ffecf1"/></g><g transform="translate(311.67,161.33) scale(0.1835) rotate(0)"><path d="M10 1L12.2451 7.90983H19.5106L13.6327 12.1803L15.8779 19.0902L10 14.8197L4.12215 19.0902L6.36729 12.1803L0.489441 7.90983H7.75487L10 1Z" fill="#7a91ee"/></g><g transform="translate(311.67,165) scale(0.1835) rotate(0)"><path d="M10 1L12.2451 7.90983H19.5106L13.6327 12.1803L15.8779 19.0902L10 14.8197L4.12215 19.0902L6.36729 12.1803L0.489441 7.90983H7.75487L10 1Z" fill="#ffe4ea"/></g><g transform="translate(344.67,161.33) scale(0.3665) rotate(0)"><path d="M10 1L12.2451 7.90983H19.5106L13.6327 12.1803L15.8779 19.0902L10 14.8197L4.12215 19.0902L6.36729 12.1803L0.489441 7.90983H7.75487L10 1Z" fill="#ffc1d0"/></g><g transform="translate(381.33,161.33) scale(0.3665) rotate(0)"><path d="M10 1L12.2451 7.90983H19.5106L13.6327 12.1803L15.8779 19.0902L10 14.8197L4.12215 19.0902L6.36729 12.1803L0.489441 7.90983H7.75487L10 1Z" fill="#ffd9e2"/></g><rect x="14.666649999999999" y="197.999775" width="7.3333249999999985" height="7.3333249999999985" fill="#ffffff"/><g transform="translate(14.67,198) scale(0.1835) rotate(0)"><path d="M10 1L12.2451 7.90983H19.5106L13.6327 12.1803L15.8779 19.0902L10 14.8197L4.12215 19.0902L6.36729 12.1803L0.489441 7.90983H7.75487L10 1Z" fill="#b3c0f5"/></g><g transform="translate(18.33,198) scale(0.1835) rotate(0)"><path d="M10 1L12.2451 7.90983H19.5106L13.6327 12.1803L15.8779 19.0902L10 14.8197L4.12215 19.0902L6.36729 12.1803L0.489441 7.90983H7.75487L10 1Z" fill="#cfd7f9"/></g><g transform="translate(18.33,201.67) scale(0.1835) rotate(0)"><path d="M10 1L12.2451 7.90983H19.5106L13.6327 12.1803L15.8779 19.0902L10 14.8197L4.12215 19.0902L6.36729 12.1803L0.489441 7.90983H7.75487L10 1Z" fill="#ffb5c7"/></g><rect x="51.33327499999999" y="197.999775" width="7.3333249999999985" height="7.3333249999999985" fill="#ffffff"/><g transform="translate(51.33,198) scale(0.1835) rotate(0)"><path d="M10 1L12.2451 7.90983H19.5106L13.6327 12.1803L15.8779 19.0902L10 14.8197L4.12215 19.0902L6.36729 12.1803L0.489441 7.90983H7.75487L10 1Z" fill="#ffc9d6"/></g><g transform="translate(51.33,201.67) scale(0.1835) rotate(0)"><path d="M10 1L12.2451 7.90983H19.5106L13.6327 12.1803L15.8779 19.0902L10 14.8197L4.12215 19.0902L6.36729 12.1803L0.489441 7.90983H7.75487L10 1Z" fill="#ff84a1"/></g><rect x="87.9999" y="197.999775" width="7.3333249999999985" height="7.3333249999999985" fill="#ffffff"/><g transform="translate(88,198) scale(0.1835) rotate(0)"><path d="M10 1L12.2451 7.90983H19.5106L13.6327 12.1803L15.8779 19.0902L10 14.8197L4.12215 19.0902L6.36729 12.1803L0.489441 7.90983H7.75487L10 1Z" fill="#bec9f7"/></g><g transform="translate(91.67,198) scale(0.1835) rotate(0)"><path d="M10 1L12.2451 7.90983H19.5106L13.6327 12.1803L15.8779 19.0902L10 14.8197L4.12215 19.0902L6.36729 12.1803L0.489441 7.90983H7.75487L10 1Z" fill="#ff5c82"/></g><g transform="translate(91.67,201.67) scale(0.1835) rotate(0)"><path d="M10 1L12.2451 7.90983H19.5106L13.6327 12.1803L15.8779 19.0902L10 14.8197L4.12215 19.0902L6.36729 12.1803L0.489441 7.90983H7.75487L10 1Z" fill="#ffdee6"/></g><rect x="124.666525" y="197.999775" width="7.3333249999999985" height="7.3333249999999985" fill="#ffffff"/><g transform="translate(128.33,201.67) scale(0.1835) rotate(0)"><path d="M10 1L12.2451 7.90983H19.5106L13.6327 12.1803L15.8779 19.0902L10 14.8197L4.12215 19.0902L6.36729 12.1803L0.489441 7.90983H7.75487L10 1Z" fill="#cfd7f9"/></g><rect x="161.33315" y="197.999775" width="7.3333249999999985" height="7.3333249999999985" fill="#ffffff"/><g transform="translate(161.33,198) scale(0.1835) rotate(0)"><path d="M10 1L12.2451 7.90983H19.5106L13.6327 12.1803L15.8779 19.0902L10 14.8197L4.12215 19.0902L6.36729 12.1803L0.489441 7.90983H7.75487L10 1Z" fill="#ff809e"/></g><g transform="translate(165,198) scale(0.1835) rotate(0)"><path d="M10 1L12.2451 7.90983H19.5106L13.6327 12.1803L15.8779 19.0902L10 14.8197L4.12215 19.0902L6.36729 12.1803L0.489441 7.90983H7.75487L10 1Z" fill="#ff537c"/></g><g transform="translate(161.33,201.67) scale(0.1835) rotate(0)"><path d="M10 1L12.2451 7.90983H19.5106L13.6327 12.1803L15.8779 19.0902L10 14.8197L4.12215 19.0902L6.36729 12.1803L0.489441 7.90983H7.75487L10 1Z" fill="#ffa4ba"/></g><g transform="translate(165,201.67) scale(0.1835) rotate(0)"><path d="M10 1L12.2451 7.90983H19.5106L13.6327 12.1803L15.8779 19.0902L10 14.8197L4.12215 19.0902L6.36729 12.1803L0.489441 7.90983H7.75487L10 1Z" fill="#768ded"/></g><g transform="translate(271.33,198) scale(0.3665) rotate(0)"><path d="M10 1L12.2451 7.90983H19.5106L13.6327 12.1803L15.8779 19.0902L10 14.8197L4.12215 19.0902L6.36729 12.1803L0.489441 7.90983H7.75487L10 1Z" fill="#ff93ad"/></g><rect x="307.99965" y="197.999775" width="7.3333249999999985" height="7.3333249999999985" fill="#ffffff"/><g transform="translate(308,198) scale(0.1835) rotate(0)"><path d="M10 1L12.2451 7.90983H19.5106L13.6327 12.1803L15.8779 19.0902L10 14.8197L4.12215 19.0902L6.36729 12.1803L0.489441 7.90983H7.75487L10 1Z" fill="#fff4f7"/></g><g transform="translate(308,201.67) scale(0.1835) rotate(0)"><path d="M10 1L12.2451 7.90983H19.5106L13.6327 12.1803L15.8779 19.0902L10 14.8197L4.12215 19.0902L6.36729 12.1803L0.489441 7.90983H7.75487L10 1Z" fill="#ffcdd9"/></g><g transform="translate(311.67,201.67) scale(0.1835) rotate(0)"><path d="M10 1L12.2451 7.90983H19.5106L13.6327 12.1803L15.8779 19.0902L10 14.8197L4.12215 19.0902L6.36729 12.1803L0.489441 7.90983H7.75487L10 1Z" fill="#ff7d9c"/></g><rect x="344.666275" y="197.999775" width="7.3333249999999985" height="7.3333249999999985" fill="#ffffff"/><g transform="translate(344.67,198) scale(0.1835) rotate(0)"><path d="M10 1L12.2451 7.90983H19.5106L13.6327 12.1803L15.8779 19.0902L10 14.8197L4.12215 19.0902L6.36729 12.1803L0.489441 7.90983H7.75487L10 1Z" fill="#ffc2d1"/></g><g transform="translate(348.33,198) scale(0.1835) rotate(0)"><path d="M10 1L12.2451 7.90983H19.5106L13.6327 12.1803L15.8779 19.0902L10 14.8197L4.12215 19.0902L6.36729 12.1803L0.489441 7.90983H7.75487L10 1Z" fill="#f5f6fe"/></g><rect x="14.666649999999999" y="234.66639999999998" width="7.3333249999999985" height="7.3333249999999985" fill="#ffffff"/><g transform="translate(18.33,234.67) scale(0.1835) rotate(0)"><path d="M10 1L12.2451 7.90983H19.5106L13.6327 12.1803L15.8779 19.0902L10 14.8197L4.12215 19.0902L6.36729 12.1803L0.489441 7.90983H7.75487L10 1Z" fill="#ffabbf"/></g><g transform="translate(18.33,238.33) scale(0.1835) rotate(0)"><path d="M10 1L12.2451 7.90983H19.5106L13.6327 12.1803L15.8779 19.0902L10 14.8197L4.12215 19.0902L6.36729 12.1803L0.489441 7.90983H7.75487L10 1Z" fill="#ff6e90"/></g><rect x="87.9999" y="234.66639999999998" width="7.3333249999999985" height="7.3333249999999985" fill="#ffffff"/><g transform="translate(91.67,234.67) scale(0.1835) rotate(0)"><path d="M10 1L12.2451 7.90983H19.5106L13.6327 12.1803L15.8779 19.0902L10 14.8197L4.12215 19.0902L6.36729 12.1803L0.489441 7.90983H7.75487L10 1Z" fill="#ffd6e0"/></g><g transform="translate(88,238.33) scale(0.1835) rotate(0)"><path d="M10 1L12.2451 7.90983H19.5106L13.6327 12.1803L15.8779 19.0902L10 14.8197L4.12215 19.0902L6.36729 12.1803L0.489441 7.90983H7.75487L10 1Z" fill="#5a76ea"/></g><g transform="translate(91.67,238.33) scale(0.1835) rotate(0)"><path d="M10 1L12.2451 7.90983H19.5106L13.6327 12.1803L15.8779 19.0902L10 14.8197L4.12215 19.0902L6.36729 12.1803L0.489441 7.90983H7.75487L10 1Z" fill="#ffa9bd"/></g><g transform="translate(161.33,234.67) scale(0.3665) rotate(0)"><path d="M10 1L12.2451 7.90983H19.5106L13.6327 12.1803L15.8779 19.0902L10 14.8197L4.12215 19.0902L6.36729 12.1803L0.489441 7.90983H7.75487L10 1Z" fill="#f1f3fd"/></g><rect x="197.999775" y="234.66639999999998" width="7.3333249999999985" height="7.3333249999999985" fill="#ffffff"/><g transform="translate(201.67,234.67) scale(0.1835) rotate(0)"><path d="M10 1L12.2451 7.90983H19.5106L13.6327 12.1803L15.8779 19.0902L10 14.8197L4.12215 19.0902L6.36729 12.1803L0.489441 7.90983H7.75487L10 1Z" fill="#ff82a0"/></g><g transform="translate(201.67,238.33) scale(0.1835) rotate(0)"><path d="M10 1L12.2451 7.90983H19.5106L13.6327 12.1803L15.8779 19.0902L10 14.8197L4.12215 19.0902L6.36729 12.1803L0.489441 7.90983H7.75487L10 1Z" fill="#ebeefc"/></g><rect x="271.33302499999996" y="234.66639999999998" width="7.3333249999999985" height="7.3333249999999985" fill="#ffffff"/><g transform="translate(271.33,234.67) scale(0.1835) rotate(0)"><path d="M10 1L12.2451 7.90983H19.5106L13.6327 12.1803L15.8779 19.0902L10 14.8197L4.12215 19.0902L6.36729 12.1803L0.489441 7.90983H7.75487L10 1Z" fill="#3154e4"/></g><g transform="translate(275,238.33) scale(0.1835) rotate(0)"><path d="M10 1L12.2451 7.90983H19.5106L13.6327 12.1803L15.8779 19.0902L10 14.8197L4.12215 19.0902L6.36729 12.1803L0.489441 7.90983H7.75487L10 1Z" fill="#f1f3fd"/></g><g transform="translate(308,234.67) scale(0.3665) rotate(0)"><path d="M10 1L12.2451 7.90983H19.5106L13.6327 12.1803L15.8779 19.0902L10 14.8197L4.12215 19.0902L6.36729 12.1803L0.489441 7.90983H7.75487L10 1Z" fill="#ffc4d2"/></g><rect x="381.3329" y="234.66639999999998" width="7.3333249999999985" height="7.3333249999999985" fill="#ffffff"/><g transform="translate(381.33,234.67) scale(0.1835) rotate(0)"><path d="M10 1L12.2451 7.90983H19.5106L13.6327 12.1803L15.8779 19.0902L10 14.8197L4.12215 19.0902L6.36729 12.1803L0.489441 7.90983H7.75487L10 1Z" fill="#ff84a1"/></g><g transform="translate(385,234.67) scale(0.1835) rotate(0)"><path d="M10 1L12.2451 7.90983H19.5106L13.6327 12.1803L15.8779 19.0902L10 14.8197L4.12215 19.0902L6.36729 12.1803L0.489441 7.90983H7.75487L10 1Z" fill="#ffe1e8"/></g><g transform="translate(381.33,238.33) scale(0.1835) rotate(0)"><path d="M10 1L12.2451 7.90983H19.5106L13.6327 12.1803L15.8779 19.0902L10 14.8197L4.12215 19.0902L6.36729 12.1803L0.489441 7.90983H7.75487L10 1Z" fill="#a9b7f4"/></g><g transform="translate(385,238.33) scale(0.1835) rotate(0)"><path d="M10 1L12.2451 7.90983H19.5106L13.6327 12.1803L15.8779 19.0902L10 14.8197L4.12215 19.0902L6.36729 12.1803L0.489441 7.90983H7.75487L10 1Z" fill="#ff7797"/></g><rect x="51.33327499999999" y="271.33302499999996" width="7.3333249999999985" height="7.3333249999999985" fill="#ffffff"/><g transform="translate(55,271.33) scale(0.1835) rotate(0)"><path d="M10 1L12.2451 7.90983H19.5106L13.6327 12.1803L15.8779 19.0902L10 14.8197L4.12215 19.0902L6.36729 12.1803L0.489441 7.90983H7.75487L10 1Z" fill="#91a4f1"/></g><g transform="translate(51.33,275) scale(0.1835) rotate(0)"><path d="M10 1L12.2451 7.90983H19.5106L13.6327 12.1803L15.8779 19.0902L10 14.8197L4.12215 19.0902L6.36729 12.1803L0.489441 7.90983H7.75487L10 1Z" fill="#a8b7f4"/></g><g transform="translate(55,275) scale(0.1835) rotate(0)"><path d="M10 1L12.2451 7.90983H19.5106L13.6327 12.1803L15.8779 19.0902L10 14.8197L4.12215 19.0902L6.36729 12.1803L0.489441 7.90983H7.75487L10 1Z" fill="#cad3f8"/></g><g transform="translate(124.67,271.33) scale(0.3665) rotate(0)"><path d="M10 1L12.2451 7.90983H19.5106L13.6327 12.1803L15.8779 19.0902L10 14.8197L4.12215 19.0902L6.36729 12.1803L0.489441 7.90983H7.75487L10 1Z" fill="#fff8fa"/></g><rect x="161.33315" y="271.33302499999996" width="7.3333249999999985" height="7.3333249999999985" fill="#ffffff"/><g transform="translate(161.33,275) scale(0.1835) rotate(0)"><path d="M10 1L12.2451 7.90983H19.5106L13.6327 12.1803L15.8779 19.0902L10 14.8197L4.12215 19.0902L6.36729 12.1803L0.489441 7.90983H7.75487L10 1Z" fill="#f5f7fe"/></g><rect x="197.999775" y="271.33302499999996" width="7.3333249999999985" height="7.3333249999999985" fill="#ffffff"/><g transform="translate(198,271.33) scale(0.1835) rotate(0)"><path d="M10 1L12.2451 7.90983H19.5106L13.6327 12.1803L15.8779 19.0902L10 14.8197L4.12215 19.0902L6.36729 12.1803L0.489441 7.90983H7.75487L10 1Z" fill="#ffb4c6"/></g><g transform="translate(198,275) scale(0.1835) rotate(0)"><path d="M10 1L12.2451 7.90983H19.5106L13.6327 12.1803L15.8779 19.0902L10 14.8197L4.12215 19.0902L6.36729 12.1803L0.489441 7.90983H7.75487L10 1Z" fill="#294de3"/></g><g transform="translate(201.67,275) scale(0.1835) rotate(0)"><path d="M10 1L12.2451 7.90983H19.5106L13.6327 12.1803L15.8779 19.0902L10 14.8197L4.12215 19.0902L6.36729 12.1803L0.489441 7.90983H7.75487L10 1Z" fill="#3e5fe6"/></g><rect x="271.33302499999996" y="271.33302499999996" width="7.3333249999999985" height="7.3333249999999985" fill="#ffffff"/><g transform="translate(271.33,271.33) scale(0.1835) rotate(0)"><path d="M10 1L12.2451 7.90983H19.5106L13.6327 12.1803L15.8779 19.0902L10 14.8197L4.12215 19.0902L6.36729 12.1803L0.489441 7.90983H7.75487L10 1Z" fill="#ff9db5"/></g><g transform="translate(275,271.33) scale(0.1835) rotate(0)"><path d="M10 1L12.2451 7.90983H19.5106L13.6327 12.1803L15.8779 19.0902L10 14.8197L4.12215 19.0902L6.36729 12.1803L0.489441 7.90983H7.75487L10 1Z" fill="#ff7b9a"/></g><g transform="translate(271.33,275) scale(0.1835) rotate(0)"><path d="M10 1L12.2451 7.90983H19.5106L13.6327 12.1803L15.8779 19.0902L10 14.8197L4.12215 19.0902L6.36729 12.1803L0.489441 7.90983H7.75487L10 1Z" fill="#4362e7"/></g><g transform="translate(275,275) scale(0.1835) rotate(0)"><path d="M10 1L12.2451 7.90983H19.5106L13.6327 12.1803L15.8779 19.0902L10 14.8197L4.12215 19.0902L6.36729 12.1803L0.489441 7.90983H7.75487L10 1Z" fill="#617cea"/></g><rect x="307.99965" y="271.33302499999996" width="7.3333249999999985" height="7.3333249999999985" fill="#ffffff"/><g transform="translate(308,271.33) scale(0.1835) rotate(0)"><path d="M10 1L12.2451 7.90983H19.5106L13.6327 12.1803L15.8779 19.0902L10 14.8197L4.12215 19.0902L6.36729 12.1803L0.489441 7.90983H7.75487L10 1Z" fill="#4867e7"/></g><g transform="translate(308,275) scale(0.1835) rotate(0)"><path d="M10 1L12.2451 7.90983H19.5106L13.6327 12.1803L15.8779 19.0902L10 14.8197L4.12215 19.0902L6.36729 12.1803L0.489441 7.90983H7.75487L10 1Z" fill="#506ee8"/></g><g transform="translate(311.67,275) scale(0.1835) rotate(0)"><path d="M10 1L12.2451 7.90983H19.5106L13.6327 12.1803L15.8779 19.0902L10 14.8197L4.12215 19.0902L6.36729 12.1803L0.489441 7.90983H7.75487L10 1Z" fill="#f1f3fd"/></g><rect x="381.3329" y="271.33302499999996" width="7.3333249999999985" height="7.3333249999999985" fill="#ffffff"/><g transform="translate(381.33,271.33) scale(0.1835) rotate(0)"><path d="M10 1L12.2451 7.90983H19.5106L13.6327 12.1803L15.8779 19.0902L10 14.8197L4.12215 19.0902L6.36729 12.1803L0.489441 7.90983H7.75487L10 1Z" fill="#ffccd8"/></g><g transform="translate(385,271.33) scale(0.1835) rotate(0)"><path d="M10 1L12.2451 7.90983H19.5106L13.6327 12.1803L15.8779 19.0902L10 14.8197L4.12215 19.0902L6.36729 12.1803L0.489441 7.90983H7.75487L10 1Z" fill="#ffa3b8"/></g><g transform="translate(381.33,275) scale(0.1835) rotate(0)"><path d="M10 1L12.2451 7.90983H19.5106L13.6327 12.1803L15.8779 19.0902L10 14.8197L4.12215 19.0902L6.36729 12.1803L0.489441 7.90983H7.75487L10 1Z" fill="#ffd4df"/></g><rect x="14.666649999999999" y="307.99965" width="7.3333249999999985" height="7.3333249999999985" fill="#ffffff"/><g transform="translate(18.33,308) scale(0.1835) rotate(0)"><path d="M10 1L12.2451 7.90983H19.5106L13.6327 12.1803L15.8779 19.0902L10 14.8197L4.12215 19.0902L6.36729 12.1803L0.489441 7.90983H7.75487L10 1Z" fill="#ffd6e0"/></g><g transform="translate(14.67,311.67) scale(0.1835) rotate(0)"><path d="M10 1L12.2451 7.90983H19.5106L13.6327 12.1803L15.8779 19.0902L10 14.8197L4.12215 19.0902L6.36729 12.1803L0.489441 7.90983H7.75487L10 1Z" fill="#93a6f1"/></g><g transform="translate(18.33,311.67) scale(0.1835) rotate(0)"><path d="M10 1L12.2451 7.90983H19.5106L13.6327 12.1803L15.8779 19.0902L10 14.8197L4.12215 19.0902L6.36729 12.1803L0.489441 7.90983H7.75487L10 1Z" fill="#738bed"/></g><g transform="translate(51.33,308) scale(0.3665) rotate(0)"><path d="M10 1L12.2451 7.90983H19.5106L13.6327 12.1803L15.8779 19.0902L10 14.8197L4.12215 19.0902L6.36729 12.1803L0.489441 7.90983H7.75487L10 1Z" fill="#254ae3"/></g><rect x="87.9999" y="307.99965" width="7.3333249999999985" height="7.3333249999999985" fill="#ffffff"/><g transform="translate(91.67,308) scale(0.1835) rotate(0)"><path d="M10 1L12.2451 7.90983H19.5106L13.6327 12.1803L15.8779 19.0902L10 14.8197L4.12215 19.0902L6.36729 12.1803L0.489441 7.90983H7.75487L10 1Z" fill="#ffbccc"/></g><g transform="translate(91.67,311.67) scale(0.1835) rotate(0)"><path d="M10 1L12.2451 7.90983H19.5106L13.6327 12.1803L15.8779 19.0902L10 14.8197L4.12215 19.0902L6.36729 12.1803L0.489441 7.90983H7.75487L10 1Z" fill="#ff97b0"/></g><rect x="124.666525" y="307.99965" width="7.3333249999999985" height="7.3333249999999985" fill="#ffffff"/><g transform="translate(124.67,308) scale(0.1835) rotate(0)"><path d="M10 1L12.2451 7.90983H19.5106L13.6327 12.1803L15.8779 19.0902L10 14.8197L4.12215 19.0902L6.36729 12.1803L0.489441 7.90983H7.75487L10 1Z" fill="#ffadc0"/></g><g transform="translate(128.33,311.67) scale(0.1835) rotate(0)"><path d="M10 1L12.2451 7.90983H19.5106L13.6327 12.1803L15.8779 19.0902L10 14.8197L4.12215 19.0902L6.36729 12.1803L0.489441 7.90983H7.75487L10 1Z" fill="#ff6f91"/></g><rect x="161.33315" y="307.99965" width="7.3333249999999985" height="7.3333249999999985" fill="#ffffff"/><g transform="translate(161.33,308) scale(0.1835) rotate(0)"><path d="M10 1L12.2451 7.90983H19.5106L13.6327 12.1803L15.8779 19.0902L10 14.8197L4.12215 19.0902L6.36729 12.1803L0.489441 7.90983H7.75487L10 1Z" fill="#dee4fb"/></g><g transform="translate(165,308) scale(0.1835) rotate(0)"><path d="M10 1L12.2451 7.90983H19.5106L13.6327 12.1803L15.8779 19.0902L10 14.8197L4.12215 19.0902L6.36729 12.1803L0.489441 7.90983H7.75487L10 1Z" fill="#ff6288"/></g><rect x="234.66639999999998" y="307.99965" width="7.3333249999999985" height="7.3333249999999985" fill="#ffffff"/><g transform="translate(234.67,308) scale(0.1835) rotate(0)"><path d="M10 1L12.2451 7.90983H19.5106L13.6327 12.1803L15.8779 19.0902L10 14.8197L4.12215 19.0902L6.36729 12.1803L0.489441 7.90983H7.75487L10 1Z" fill="#ffa0b6"/></g><g transform="translate(238.33,308) scale(0.1835) rotate(0)"><path d="M10 1L12.2451 7.90983H19.5106L13.6327 12.1803L15.8779 19.0902L10 14.8197L4.12215 19.0902L6.36729 12.1803L0.489441 7.90983H7.75487L10 1Z" fill="#ffb4c6"/></g><g transform="translate(238.33,311.67) scale(0.1835) rotate(0)"><path d="M10 1L12.2451 7.90983H19.5106L13.6327 12.1803L15.8779 19.0902L10 14.8197L4.12215 19.0902L6.36729 12.1803L0.489441 7.90983H7.75487L10 1Z" fill="#7a91ee"/></g><rect x="271.33302499999996" y="307.99965" width="7.3333249999999985" height="7.3333249999999985" fill="#ffffff"/><g transform="translate(271.33,311.67) scale(0.1835) rotate(0)"><path d="M10 1L12.2451 7.90983H19.5106L13.6327 12.1803L15.8779 19.0902L10 14.8197L4.12215 19.0902L6.36729 12.1803L0.489441 7.90983H7.75487L10 1Z" fill="#6b84ec"/></g><g transform="translate(275,311.67) scale(0.1835) rotate(0)"><path d="M10 1L12.2451 7.90983H19.5106L13.6327 12.1803L15.8779 19.0902L10 14.8197L4.12215 19.0902L6.36729 12.1803L0.489441 7.90983H7.75487L10 1Z" fill="#93a5f1"/></g><rect x="307.99965" y="307.99965" width="7.3333249999999985" height="7.3333249999999985" fill="#ffffff"/><g transform="translate(311.67,308) scale(0.1835) rotate(0)"><path d="M10 1L12.2451 7.90983H19.5106L13.6327 12.1803L15.8779 19.0902L10 14.8197L4.12215 19.0902L6.36729 12.1803L0.489441 7.90983H7.75487L10 1Z" fill="#ff6388"/></g><g transform="translate(308,311.67) scale(0.1835) rotate(0)"><path d="M10 1L12.2451 7.90983H19.5106L13.6327 12.1803L15.8779 19.0902L10 14.8197L4.12215 19.0902L6.36729 12.1803L0.489441 7.90983H7.75487L10 1Z" fill="#fff9fb"/></g><g transform="translate(344.67,308) scale(0.3665) rotate(0)"><path d="M10 1L12.2451 7.90983H19.5106L13.6327 12.1803L15.8779 19.0902L10 14.8197L4.12215 19.0902L6.36729 12.1803L0.489441 7.90983H7.75487L10 1Z" fill="#4161e6"/></g><rect x="381.3329" y="307.99965" width="7.3333249999999985" height="7.3333249999999985" fill="#ffffff"/><g transform="translate(381.33,308) scale(0.1835) rotate(0)"><path d="M10 1L12.2451 7.90983H19.5106L13.6327 12.1803L15.8779 19.0902L10 14.8197L4.12215 19.0902L6.36729 12.1803L0.489441 7.90983H7.75487L10 1Z" fill="#a2b2f3"/></g><g transform="translate(385,308) scale(0.1835) rotate(0)"><path d="M10 1L12.2451 7.90983H19.5106L13.6327 12.1803L15.8779 19.0902L10 14.8197L4.12215 19.0902L6.36729 12.1803L0.489441 7.90983H7.75487L10 1Z" fill="#6680eb"/></g><g transform="translate(385,311.67) scale(0.1835) rotate(0)"><path d="M10 1L12.2451 7.90983H19.5106L13.6327 12.1803L15.8779 19.0902L10 14.8197L4.12215 19.0902L6.36729 12.1803L0.489441 7.90983H7.75487L10 1Z" fill="#ff4f79"/></g></g></svg>